<?xml version="1.0" standalone="no"?>
<!DOCTYPE svg PUBLIC "-//W3C//DTD SVG 20010904//EN"
 "http://www.w3.org/TR/2001/REC-SVG-20010904/DTD/svg10.dtd">
<svg version="1.0" xmlns="http://www.w3.org/2000/svg"
 width="850.000000pt" height="850.000000pt" viewBox="0 0 850.000000 850.000000"
 preserveAspectRatio="xMidYMid meet">
<metadata>
Created by potrace 1.11, written by Peter Selinger 2001-2013
</metadata>
<g transform="translate(0.000000,850.000000) scale(0.100000,-0.100000)"
fill="#000000" stroke="none">
<path d="M5020 6402 l-355 -177 0 -333 0 -333 -40 6 c-118 18 -399 13 -513 -9
-180 -36 -375 -139 -516 -274 -24 -23 -46 -42 -49 -42 -3 0 -41 35 -84 78
-192 193 -371 261 -678 260 -222 -1 -378 -53 -528 -174 l-68 -55 1 73 c1 40 1
80 1 88 -1 13 -47 15 -356 14 -196 -1 -359 -5 -363 -9 -12 -11 -9 -2725 3
-2726 5 -1 169 -2 363 -3 l352 -1 0 25 c1 14 2 394 4 845 3 780 4 824 23 910
35 155 94 241 200 291 62 30 76 33 168 41 172 14 320 -45 390 -157 23 -36 68
-150 60 -150 -2 0 -1 -10 4 -23 20 -53 25 -213 27 -967 1 -437 2 -800 3 -805
1 -6 128 -10 361 -10 l360 0 0 35 c1 19 2 400 4 845 2 446 6 826 10 845 29
146 71 240 130 293 34 30 118 74 156 83 71 15 198 15 263 0 191 -45 274 -166
304 -441 4 -33 7 -419 7 -857 1 -524 4 -798 11 -799 6 -1 169 -2 363 -3 l352
-1 1 775 c0 838 1 866 25 985 31 156 102 258 218 311 73 33 136 43 246 39 247
-9 381 -139 415 -405 4 -30 9 -64 11 -75 2 -11 5 -381 5 -822 0 -601 4 -802
12 -805 7 -2 170 -4 362 -4 l350 1 0 850 c0 468 -4 882 -7 920 -56 546 -298
892 -693 989 -165 41 -430 44 -568 7 -134 -35 -271 -106 -349 -179 l-28 -26
-1 60 c0 32 0 310 1 617 0 306 -3 557 -7 557 -4 -1 -168 -81 -363 -178z"/>
</g>
</svg>
