<?xml version="1.0" encoding="UTF-8"?>
<svg id="Calque_1" data-name="Calque 1" xmlns="http://www.w3.org/2000/svg" version="1.1" viewBox="0 0 311.9 132.9">
  <defs>
    <style>
      .cls-1 {
        fill: #1d1d1b;
        stroke-width: 0px;
      }

      .cls-2 {
        fill: none;
        stroke: #1d1d1b;
        stroke-miterlimit: 10;
        stroke-width: 2px;
      }
    </style>
  </defs>
  <g>
    <path class="cls-1" d="M46.1,38.4c-.3-1.1-.5-1.2-2-1.2h-7.6c-1.2,0-1.5.1-1.9,1.2l-1.8,5.3c-.8,2.2-1.1,3.6-1.1,4.2s.2.9,1.5,1h1.6c.4.4.4,1.2-.1,1.4-1.3-.1-2.9-.1-5.2-.1-1.7,0-3.5.1-4.8.1-.3-.2-.4-1-.1-1.2h1.6c1.2-.2,2.3-.8,3-2.6.9-2.3,2.3-5.6,4.4-11.2l5.1-13.5c.7-1.8,1-2.8.9-3.6,1.2-.4,2.1-1.2,2.6-1.9.3,0,.6.1.8.5.6,2.2,1.5,4.5,2.2,6.7l6.9,20.1c1.4,4.3,2.1,5.1,4.2,5.3h1.4c.4.4.2,1.2,0,1.4-2-.1-3.8-.1-6.1-.1s-4.3.1-5.8.1c-.4-.2-.4-1,0-1.2h1.4c1.1-.2,1.8-.5,1.8-1s-.3-1.5-.7-2.7l-2.2-6.8ZM36.2,34c-.4,1.1-.4,1.2,1,1.2h6.2c1.5,0,1.6-.2,1.1-1.5l-2.7-8.2c-.4-1.2-.9-2.6-1.1-3.2h-.1c-.1.2-.6,1.5-1.2,3l-3.2,8.7Z"/>
    <path class="cls-1" d="M61.8,35.7c0-1.9,0-2.2-1.4-3.1l-.5-.3c-.2-.2-.2-.8,0-.9,1.1-.4,3.8-1.7,5.1-2.4.2,0,.4.1.4.3v2.9c0,.2,0,.4.1.5,1.8-1.5,3.7-3,5.5-3s2.2.8,2.2,2-1.4,2.3-2.1,2.3-.8-.1-1.1-.4c-.8-.5-1.5-.8-2.2-.8s-1.4.5-1.8,1c-.5.7-.6,2.1-.6,3.9v6.8c0,3.6.1,4.2,2,4.4h1.8c.4.4.2,1.2-.1,1.4-2.4-.1-3.8-.1-5.6-.1s-3.3,0-4.6.1c-.3-.1-.4-1,0-1.2h.9c1.9-.5,1.9-.9,1.9-4.5v-8.8Z"/>
    <path class="cls-1" d="M78.4,35.7c0-1.9,0-2.2-1.4-3.1l-.5-.3c-.2-.2-.2-.8,0-.9,1.1-.4,4-1.7,5-2.4.2,0,.5,0,.6.3-.1,1.2-.1,1.9-.1,2.4s.2.6.5.6c2.1-1.3,4.5-2.6,7-2.6,4.2,0,5.9,2.9,5.9,6.2v8.6c0,3.6.1,4.1,1.9,4.4h1.1c.4.4.2,1.2-.1,1.4-1.5-.1-3-.1-4.7-.1s-3.3,0-4.7.1c-.3-.1-.4-1,0-1.2h.9c1.9-.5,1.9-.9,1.9-4.5v-7.5c0-2.9-1.3-5-4.7-5s-3.5.8-4.2,1.8c-.6.9-.8,1.6-.8,3v7.7c0,3.6.1,4.1,1.9,4.4h.9c.3.4.2,1.2-.1,1.4-1.4-.1-2.8-.1-4.6-.1s-3.3,0-4.7.1c-.4-.1-.5-1-.1-1.2h1c1.9-.4,1.9-.9,1.9-4.5v-8.8Z"/>
    <path class="cls-1" d="M111.6,39.7c.8-.2.9-.7.9-1.5v-2.3c.1-1.9-.5-4.4-3.6-4.4s-3.1.7-3.2,2.2c0,.8-.1,1.4-.5,1.7-.8.6-2.1,1-2.9,1s-.7-.2-.7-.7c0-2.6,5.7-6.2,9.3-6.2s5.4,2.1,5.2,5.9l-.3,8.7c0,2.3.4,4.4,2.3,4.4s1-.1,1.2-.3c.2-.1.5-.3.7-.3s.3.3.3.6-1.8,2.2-4.2,2.2-2.4-.5-3.2-1.6c-.2-.3-.5-.7-.8-.7s-.9.5-1.9,1c-1.1.6-2.2,1.2-3.6,1.2s-2.6-.4-3.5-1.2c-1-.9-1.6-2.1-1.6-3.5s1-3.1,4.2-4.3l6-2.1ZM108.5,48.5c1,0,2.6-.8,3.1-1.2s.6-1.3.6-2.4v-3c.1-.5-.1-.6-.4-.6s-1.1.2-2.1.5c-3,1-4.4,1.8-4.4,3.7s.6,3,3.2,3Z"/>
    <path class="cls-1" d="M127.9,42.7c0,3.5.9,5.8,4.6,5.8s3-.5,4.1-1.5c.7-.6,1-1.4,1-2.9v-8.2c0-3.3-.3-3.4-1.9-4l-.6-.3c-.4-.2-.4-.9,0-1.1,2,0,4.8-.4,5.9-.9.2,0,.4.1.5.4-.1,1-.2,2.5-.2,4.4v8.4c0,4,.2,5.5,1.6,5.5s1.2-.1,2-.2c.3.2.4,1.2,0,1.5-2,.4-4.9.9-6.6,1.9-.2,0-.5-.1-.6-.4v-2.1c0-.4-.1-.7-.4-.7-1.5.9-4,2.6-6.9,2.6-4.4,0-6.1-2.2-6.1-6.3v-8.4c0-3.2,0-3.6-1.5-4.2l-.6-.3c-.3-.2-.2-.9.1-1.1,2.3,0,4.3-.5,5.4-.9.3,0,.4.1.5.4-.1.9-.1,1.9-.1,4.4v8.4Z"/>
    <path class="cls-1" d="M166.7,42.7c0,4,0,5.8,1.5,5.8s1.4-.2,2.2-.5c.3.1.4,1.4,0,1.6-2.1.3-5.2,1-6.6,1.6-.3,0-.5-.1-.5-.4v-.8c0-.8,0-1.4-.1-1.6h-.2c-2.2,1.5-3.9,2.3-6.3,2.3-5.6,0-9.3-4.4-9.3-9.6s5.3-11.5,12.1-11.5,2.8.2,3.3.5c.2,0,.3-.3.3-.7v-7.6c0-3,0-3.3-1.5-4.2l-.5-.3c-.2-.1-.2-.9,0-1,1.2-.4,3.6-1.2,5.4-2.1.2,0,.4,0,.5.3,0,1.5-.2,4-.2,6.2v22ZM163,35.2c0-1-.2-1.5-.5-2-.8-1.1-2.2-2.1-4.2-2.1-4.6,0-6.9,4-6.9,8.3s2.5,8.9,7.5,8.9,3.1-.6,3.9-1.4c.3-.3.3-1.1.3-1.9v-9.9Z"/>
    <path class="cls-1" d="M189.9,23.5c0-3.7-.2-4.7-2.5-4.9h-1.6c-.4-.4-.4-1.2,0-1.4,2.7-.2,6.1-.4,10.8-.4s6.2.2,8.4,1.4c2.2,1.1,3.8,3.1,3.8,6.3s-2.1,5.5-5.1,6.9c0,.5.4.7.9.8,2.7.5,6.7,3,6.7,8.4s-4.3,9.7-13.3,9.7-3.9-.1-6-.1-3.9.1-5.8.1c-.3-.1-.4-.9-.1-1.2h.9c2.7-.6,2.8-1.1,2.8-6.4v-19ZM194,30.2c0,1.4,0,1.5,2.6,1.4,5.1-.2,7.9-1.7,7.9-6.4s-3.6-6.8-7.5-6.8-1.8.1-2.3.3c-.5.1-.7.4-.7,1.3v10.2ZM194,41.8c0,1.8,0,4.4,1,5.5,1,1.2,2.5,1.4,4,1.4,4.5,0,7.9-2,7.9-7s-2-8.6-10-8.6-2.9.3-2.9,1.3v7.4Z"/>
    <path class="cls-1" d="M225,39.7c.8-.2.9-.7.9-1.5v-2.3c0-1.9-.5-4.4-3.6-4.4s-3.1.7-3.2,2.2c0,.8,0,1.4-.5,1.7-.8.6-2.1,1-2.8,1s-.7-.2-.7-.7c0-2.6,5.7-6.2,9.3-6.2s5.3,2.1,5.2,5.9l-.3,8.7c0,2.3.4,4.4,2.3,4.4s1-.1,1.2-.3c.2-.1.5-.3.7-.3s.3.3.3.6-1.8,2.2-4.2,2.2-2.4-.5-3.2-1.6c-.2-.3-.5-.7-.8-.7s-.9.5-2,1c-1.1.6-2.2,1.2-3.6,1.2s-2.7-.4-3.5-1.2c-1-.9-1.6-2.1-1.6-3.5s1-3.1,4.2-4.3l6-2.1ZM221.9,48.5c1,0,2.5-.8,3-1.2.6-.6.6-1.3.7-2.4v-3c0-.5-.1-.6-.4-.6s-1.1.2-2,.5c-3,1-4.4,1.8-4.4,3.7s.6,3,3.2,3Z"/>
    <path class="cls-1" d="M234.5,60.3c0-1.4.9-2,2-2h1c.8,0,1.3-.3,1.6-.9,1.5-2.2,2.5-4.4,2.9-5.6.2-.4.5-1.5.5-2.1,0-1-.2-1.6-.8-3.5l-3.9-10.7c-.9-2.4-1.2-3.6-3-3.9l-1.2-.2c-.3-.2-.2-1.1.1-1.2,1.6.1,3.1.1,4.8.1s2.8,0,4.3-.1c.4.1.5,1,.1,1.2l-1.2.2c-.7.1-1.1.3-1.1.6,0,.6,1.2,3.9,1.5,4.7l1.6,4.6c.3.8,1.2,3.5,1.4,3.6.2-.1,1-1.7,1.9-3.7l1.7-4c1.1-2.6,1.8-4.5,1.8-5s-.3-.7-1.2-.9l-1.5-.2c-.4-.2-.3-1.1,0-1.2,1.6.1,3.1.1,4.4.1s2.4,0,3.8-.1c.4.2.4.9,0,1.2h-.8c-1.7.5-2.6,1.9-4.3,5.5l-2.8,5.8c-1.7,3.4-5.8,12.1-8.2,17.5-.9,1.9-2.1,2.4-3.2,2.4s-2.2-.9-2.2-2.1Z"/>
    <path class="cls-1" d="M263.3,44.4c0,3.6,0,4.1,1.9,4.4h1.2c.4.4.2,1.2,0,1.4-1.7-.1-3.1-.1-4.9-.1s-3.3,0-4.8.1c-.4-.1-.5-1-.1-1.2h1.2c1.8-.4,1.9-.9,1.9-4.5v-22.6c0-3,0-3.3-1.6-4.2l-.5-.3c-.2-.1-.2-.9,0-1,1.2-.4,3.6-1.2,5.4-2.1.2,0,.4,0,.5.3,0,1.5-.1,4-.1,6.2v23.7Z"/>
    <path class="cls-1" d="M274.1,37.2c-1.3,0-1.3.1-1.3,1.4,0,5.1,3,9.4,8.3,9.4s3.1-.5,4.6-2.5c.5-.1.9.1.9.6-1.7,3.4-5.3,4.7-7.9,4.7s-5.8-1.4-7.3-3.3c-1.5-2-2.1-4.3-2.1-6.5,0-6.2,4-11.3,10.1-11.3s7.1,3,7.1,6-.1,1.1-.2,1.3c-.2.3-.9.4-3,.4h-9.3ZM277.2,35.7c3.7,0,4.8-.2,5.2-.5.1-.1.3-.3.3-1,0-1.4-1-3.2-3.9-3.2s-5.5,2.7-5.5,4.4c0,.1,0,.2.3.2h3.6Z"/>
  </g>
  <g>
    <path class="cls-1" d="M72.1,106.8c-.2-.7-.3-.7-1.2-.7h-4.5c-.8,0-.9,0-1.1.7l-1,3.1c-.4,1.4-.7,2.2-.7,2.5s.2.5.9.6h1c.2.2.2.7,0,.8-.8,0-1.7,0-3.1,0-1,0-2.1,0-2.9,0-.2-.1-.2-.6,0-.8h1c.7-.1,1.4-.5,1.8-1.6.5-1.4,1.4-3.3,2.6-6.7l3.1-8.1c.4-1.1.6-1.6.5-2.1.7-.2,1.2-.8,1.6-1.1.2,0,.4,0,.5.3.4,1.3.9,2.7,1.3,4l4.1,12.1c.9,2.6,1.3,3,2.5,3.2h.8c.2.2.1.7,0,.8-1.2,0-2.3,0-3.6,0s-2.6,0-3.4,0c-.2-.1-.3-.6,0-.8h.9c.6-.1,1-.3,1-.6s-.1-.9-.4-1.6l-1.3-4.1ZM66.1,104.2c-.2.7-.2.7.6.7h3.7c.9,0,.9-.1.7-.9l-1.6-4.9c-.2-.7-.5-1.5-.7-1.9h0c0,.1-.4.9-.7,1.8l-1.9,5.2Z"/>
    <path class="cls-1" d="M79.7,104.9c-.5-1.1-.7-2.1-1.8-2.2h-.6c-.2-.3-.1-.8,0-.8.8,0,1.8,0,2.8,0s1.4,0,2.4,0c.2.1.2.6,0,.8h-.4c-.9.2-1,.4-.7,1.3.7,2.1,1.6,4.2,2.2,5.7.3.6.4.9.5,1,.1,0,.3-.5.6-1.1l1.7-4.4c.4-1,.5-1.7.5-1.9,0-.3-.2-.4-.5-.4h-.7c-.2-.3-.1-.7,0-.8.9,0,1.7,0,2.2,0s1.3,0,2.1,0c.2.1.2.6,0,.8h-.4c-1,.2-1.3,1-2.2,2.7-.4.8-2.3,5.2-2.8,6.4-.3.8-.6,1.4-1,2.5,0,0-.2.1-.3.1s-.3,0-.4-.1c-.2-.8-.7-2-1.1-3.1l-2.5-6.1Z"/>
    <path class="cls-1" d="M103.6,107.8c0,3.8-2.6,6.4-6.3,6.4s-6.1-2.4-6.1-6.2,2.9-6.5,6.4-6.5,6.1,2.5,6.1,6.2ZM97.1,102.5c-2,0-3.4,1.9-3.4,5.2s1.2,5.7,3.9,5.7,3.5-2.8,3.5-5.1-1-5.8-3.9-5.8Z"/>
    <path class="cls-1" d="M115.7,102.1c.2.2.4.7.4,1.2s-.3,1.1-.7,1.1-.3,0-.4-.2c-.7-.8-1.8-1.6-3-1.6-2.1,0-4.1,1.6-4.1,4.8s1.6,5.1,4.8,5.1,2.6-.8,3.3-1.8c.2,0,.5.2.5.4-1,2.2-3.3,3.1-5,3.1s-3.1-.5-4.1-1.5-1.7-2.5-1.7-4.4c0-3.2,2.3-6.7,7.3-6.7s1.9.1,2.7.5Z"/>
    <path class="cls-1" d="M123.8,107.6c.4-.1.5-.4.5-.9v-1.4c0-1.1-.3-2.6-2.2-2.6s-1.9.4-1.9,1.3c0,.5,0,.8-.3,1-.4.4-1.3.6-1.7.6s-.4-.1-.4-.4c0-1.6,3.4-3.7,5.6-3.7s3.2,1.3,3.1,3.5l-.2,5.2c0,1.4.2,2.6,1.4,2.6s.6,0,.7-.2c.2,0,.3-.2.4-.2s.2.2.2.4-1,1.3-2.5,1.3-1.4-.3-1.9-.9c-.1-.2-.3-.4-.5-.4s-.6.3-1.2.6c-.7.4-1.3.8-2.2.8s-1.6-.2-2.1-.7c-.6-.5-.9-1.3-.9-2.1s.6-1.9,2.5-2.5l3.6-1.3ZM121.9,112.9c.6,0,1.5-.4,1.8-.7s.4-.8.4-1.4v-1.8c0-.3,0-.4-.2-.4s-.7.1-1.2.3c-1.8.6-2.6,1-2.6,2.2s.4,1.8,1.9,1.8Z"/>
    <path class="cls-1" d="M134.2,103.2c-.5,0-.5,0-.5.7v5.6c0,1.7.2,3.3,2.2,3.3s.6,0,.8-.1c.3,0,.7-.4.8-.4.2,0,.4.3.3.5-.5.6-1.6,1.4-3.1,1.4-2.6,0-3.1-1.4-3.1-3.2v-6.9c0-.8,0-.9-.6-.9h-.8c-.2-.1-.2-.5,0-.6.9-.3,1.6-.7,1.9-.9.4-.4,1-1.2,1.3-1.8.1,0,.5,0,.6.2v1.3c0,.5,0,.6.5.6h3.3c.4.3.3,1.1,0,1.3h-3.4Z"/>
    <path class="cls-1" d="M152.6,107.6c.4-.1.5-.4.5-.9v-1.4c0-1.1-.3-2.6-2.2-2.6s-1.9.4-1.9,1.3c0,.5,0,.8-.3,1-.4.4-1.3.6-1.7.6s-.4-.1-.4-.4c0-1.6,3.4-3.7,5.6-3.7s3.2,1.3,3.1,3.5l-.2,5.2c0,1.4.2,2.6,1.4,2.6s.6,0,.8-.2c.1,0,.3-.2.4-.2s.2.2.2.4-1,1.3-2.5,1.3-1.4-.3-2-.9c-.1-.2-.3-.4-.5-.4s-.6.3-1.2.6c-.7.4-1.3.8-2.2.8s-1.6-.2-2.1-.7c-.6-.5-.9-1.3-.9-2.1s.6-1.9,2.5-2.5l3.6-1.3ZM152.6,99.7c0,.3-.5.4-.7.4l-3.7-4c-.4-.4-.5-.7-.5-.9s.2-.5.6-.8c.4-.4.8-.5,1-.5.3,0,.6.3.8.7l2.5,5.1ZM150.7,112.9c.6,0,1.5-.4,1.8-.7.4-.4.4-.8.4-1.4v-1.8c0-.3,0-.4-.2-.4s-.7.1-1.2.3c-1.8.6-2.6,1-2.6,2.2s.4,1.8,1.9,1.8Z"/>
    <path class="cls-1" d="M170,110.4c0,2.2,0,2.5,1.1,2.6h.7c.2.2.2.8,0,.8-1,0-1.9,0-2.9,0s-2,0-2.9,0c-.2,0-.3-.6,0-.8h.7c1.1-.2,1.1-.5,1.1-2.7v-13.6c0-1.8,0-1.9-.9-2.5l-.3-.2c-.2,0-.2-.5,0-.6.8-.2,2.2-.7,3.2-1.3.1,0,.2,0,.3.2,0,.9,0,2.4,0,3.7v14.2Z"/>
    <path class="cls-1" d="M179.6,107.6c.5-.1.5-.4.5-.9v-1.4c0-1.1-.3-2.6-2.2-2.6s-1.9.4-1.9,1.3c0,.5,0,.8-.3,1-.4.4-1.3.6-1.7.6s-.4-.1-.4-.4c0-1.6,3.4-3.7,5.6-3.7s3.2,1.3,3.1,3.5l-.2,5.2c0,1.4.2,2.6,1.4,2.6s.6,0,.8-.2c.1,0,.3-.2.4-.2s.2.2.2.4-1,1.3-2.5,1.3-1.4-.3-2-.9c-.1-.2-.3-.4-.5-.4s-.6.3-1.2.6c-.7.4-1.3.8-2.2.8s-1.6-.2-2.1-.7c-.6-.5-.9-1.3-.9-2.1s.6-1.9,2.5-2.5l3.6-1.3ZM177.8,112.9c.6,0,1.5-.4,1.8-.7s.4-.8.4-1.4v-1.8c0-.3,0-.4-.2-.4s-.7.1-1.2.3c-1.8.6-2.6,1-2.6,2.2s.4,1.8,1.9,1.8Z"/>
    <path class="cls-1" d="M197.2,96.1c2.2-1.7,5-2.5,8.1-2.5s3.9.3,5.3.7c.4,0,.6.1.8.1,0,.7.2,2.6.4,4.4-.2.2-.6.2-.8,0-.5-2-1.8-4.4-6.2-4.4s-8.5,2.9-8.5,9.1,4,9.8,8.9,9.8,5.6-2.5,6.3-4.3c.2-.1.7,0,.8.1-.2,1.6-1,3.5-1.4,4.1-.4,0-.7.2-1.1.3-.7.2-2.8.7-4.7.7s-5.3-.5-7.5-2c-2.4-1.6-4.3-4.4-4.3-8.2s1.5-6.2,3.8-7.9Z"/>
    <path class="cls-1" d="M226.5,107.8c0,3.8-2.6,6.4-6.3,6.4s-6.2-2.4-6.2-6.2,2.9-6.5,6.4-6.5,6.1,2.5,6.1,6.2ZM220.1,102.5c-2,0-3.5,1.9-3.5,5.2s1.2,5.7,3.9,5.7,3.5-2.8,3.5-5.1-1-5.8-3.9-5.8Z"/>
    <path class="cls-1" d="M232.4,109.4c0,2.1.5,3.4,2.8,3.4s1.8-.3,2.4-.9c.4-.4.6-.8.6-1.7v-4.9c0-2-.2-2-1.1-2.4h-.4c-.2-.3-.2-.7,0-.8,1.2,0,2.9-.2,3.5-.5.2,0,.2,0,.3.2,0,.6,0,1.5,0,2.6v5c0,2.4,0,3.3.9,3.3s.8,0,1.2-.1c.2.1.2.8,0,.9-1.2.2-2.9.5-3.9,1.1-.1,0-.3,0-.4-.2v-1.2c0-.3,0-.4-.3-.4-.9.6-2.4,1.6-4.1,1.6-2.6,0-3.6-1.3-3.6-3.8v-5c0-1.9,0-2.2-.9-2.5h-.4c-.2-.3-.2-.7,0-.8,1.4,0,2.5-.3,3.2-.5.2,0,.3,0,.3.2,0,.5,0,1.1,0,2.6v5Z"/>
    <path class="cls-1" d="M245.9,105.2c0-1.2,0-1.3-.8-1.9l-.3-.2c-.1-.1-.1-.5,0-.5.7-.2,2.3-1,3-1.5.2,0,.2,0,.2.2v1.7c0,.1,0,.2,0,.3,1-.9,2.2-1.8,3.3-1.8s1.3.5,1.3,1.2-.8,1.4-1.3,1.4-.5,0-.7-.2c-.5-.3-.9-.5-1.3-.5s-.8.3-1.1.6c-.3.4-.4,1.3-.4,2.3v4.1c0,2.2,0,2.5,1.2,2.6h1.1c.2.2.1.8,0,.8-1.4,0-2.3,0-3.3,0s-2,0-2.8,0c-.2,0-.3-.6,0-.8h.6c1.1-.3,1.1-.5,1.1-2.7v-5.2Z"/>
  </g>
  <line class="cls-2" x1="5.6" y1="75.8" x2="306.2" y2="75.8"/>
</svg>