<?xml version="1.0" encoding="UTF-8"?>
<svg id="SVGRoot" xmlns="http://www.w3.org/2000/svg" xmlns:rdf="http://www.w3.org/1999/02/22-rdf-syntax-ns#" xmlns:dc="http://purl.org/dc/elements/1.1/" xmlns:cc="http://creativecommons.org/ns#" version="1.1" viewBox="0 0 500 127.5">
  <defs>
    <style>
      .cls-1 {
        fill: #000;
      }

      .cls-1, .cls-2, .cls-3 {
        stroke-width: 0px;
      }

      .cls-2 {
        fill: #255184;
        fill-rule: evenodd;
      }

      .cls-3 {
        fill: #fff;
      }
    </style>
  </defs>
  <g>
    <path class="cls-3" d="M458.6,63.5h15.7c-5.2,0-10.4,0-15.7,0,0,0,0,0,0,0Z"/>
    <path class="cls-1" d="M152.4,84.6c-6.3-16.6-12.7-33.3-19-49.9-.5-1.4-1.4-2-2.9-2-1.7,0-3.4,0-5,0-2.1,0-2.6.3-3.3,2.3-4.8,12.7-9.5,25.3-14.3,38-1.6,4.3-3.3,8.6-5,12.9v1.1c.5.2,1,.5,1.5.5,2.1,0,4.2,0,6.2,0,1.8,0,2.2-.2,2.8-2,3.4-9.8,6.8-19.6,10.1-29.4,1.3-3.8,2.6-7.6,3.9-11.5,2.4,7.3,4.8,14.4,7.2,21.6-3,0-5.9,0-8.8,0-1.4,0-2.1.5-2.5,1.8-.3,1.1-.7,2.2-1.1,3.3-.6,1.9-.1,2.7,1.9,2.7,3.9,0,7.8,0,11.7,0,1.2,0,1.8.3,2.2,1.5,1.1,3.4,2.3,6.7,3.5,10,.4,1.1,1,2.1,2.4,2.1,2.5,0,5,0,7.6,0,1,0,1.4-.6,1.3-1.5,0-.5-.2-1-.4-1.4Z"/>
    <path class="cls-1" d="M310,81.1c-1.2,0-1.6-.5-1.7-1.6,0-.4,0-.9,0-1.3,0-8.9,0-17.8,0-26.8,0-.5,0-1,0-1.5-.1-1-.6-1.5-1.7-1.5-1.4,0-2.7,0-4.1,0q-2.9,0-3.2,2.9c0,0-.1.1,0,0-1.5-1-3-2.1-4.6-2.8-7.4-3.2-16.1.2-19.9,7.9-3.6,7.2-3.7,14.7-.6,22.2,2.8,6.7,9.1,10,16.3,8.8,3.7-.6,6.8-2.3,9.3-5.3.2.5.3.9.5,1.3,1,2.5,2.8,4,5.4,4.2,1.5.1,3,0,4.5,0,1,0,1.5-.6,1.6-1.6,0-1.1,0-2.1,0-3.2,0-1.3-.4-1.9-1.8-1.8ZM298.6,73.3c0,.8-.3,1.7-.8,2.4-1.6,2.2-3.8,3.6-6.5,4-3.6.6-6.7-1.4-8.1-5.1-1.7-4.5-1.8-9.1,0-13.6,2.9-7.3,10.5-6.9,14.7-2.5.4.4.7,1.2.7,1.9,0,2.2,0,4.4,0,6.6"/>
    <path class="cls-1" d="M482.1,82.5c-.3-1.1-.6-2.1-.9-3.2-.5-1.7-.7-1.8-2.4-1.2-3.2,1.1-6.4,1.8-9.9,1.7-5.5-.1-10-4.2-10.5-10h1.7c6.6,0,13.3,0,19.9,0,.7,0,1.4,0,2.1,0,1,0,1.6-.6,1.6-1.6.2-4.4,0-8.8-2.3-12.7-3.2-5.6-8.2-7.9-14.5-7.8-7.6.1-14.2,4.3-17,11.2-1.7,4.2-2,8.5-1.3,13,.6,3.8,2,7.2,4.7,10,3,3.2,6.8,4.8,11.1,5.3,5.6.6,11.1,0,16.4-2.2,1.5-.6,1.6-1,1.2-2.6ZM464.2,55.6c1-.4,2.2-.6,3.3-.6,4.3.2,7.2,3.8,6.8,8.5h-15.7s0,0,0,0h0c0-3.5,2.4-6.6,5.6-7.9Z"/>
    <path class="cls-1" d="M371.4,85.9c3,1,6,1.6,9.1,1.6,2.9,0,5.7-.4,8.3-1.6-2.6,1.2-5.4,1.6-8.3,1.6-3.2,0-6.2-.6-9.1-1.6Z"/>
    <path class="cls-1" d="M389.8,65.3c-.7-.3-1.4-.6-2.1-.9-2.8-1.2-5.5-2.3-8.3-3.5-1.5-.7-2.4-1.9-2.1-3.6.2-1.7,1.3-2.7,2.8-2.9,1.4-.3,3-.4,4.4-.1,2.1.3,4.1,1.1,6.1,1.6.9.2,1.8.5,2.2-.7.5-1.5.9-3,1.4-4.5.3-.9,0-1.4-.9-1.8-.4-.2-.8-.4-1.2-.5-6-2.1-12-2.9-18.1-.4-3.3,1.4-5.7,3.7-6.6,7.3-1.4,5.6,1.4,10.7,7,13.1,2.3,1,4.7,1.8,7,2.7,1.2.5,2.4,1,3.4,1.7,2.5,1.8,2.2,5.4-.7,6.5-1.6.6-3.6.9-5.3.6-2.8-.4-5.4-1.4-8.1-2.2-1.4-.4-1.9-.3-2.4,1.1-.4,1.2-.8,2.4-1.2,3.6-.4,1.1-.1,1.9,1.1,2.4,1,.4,1.9.8,2.9,1.1,3,1,6,1.5,9.1,1.6,2.9,0,5.7-.4,8.3-1.6.4-.2.7-.4,1.1-.6,4.1-2.2,6.1-5.7,6.1-10.4,0-4.5-2.4-7.6-6.3-9.6Z"/>
    <path class="cls-1" d="M445.8,83.6c-.2-1.1-.4-2.2-.7-3.4-.3-1.4-.6-1.6-2-1.2-1.5.3-2.9.7-4.4.9-2.6.3-4.3-.9-4.9-3.5-.2-.8-.2-1.6-.2-2.4,0-5.8,0-11.6,0-17.5,0-.4,0-.8,0-1.3.6,0,1,0,1.5,0,2.3,0,4.5,0,6.8,0,1.5,0,1.9-.4,1.9-1.9,0-.3,0-.6,0-.9,0-4.1.3-3.7-3.7-3.7-2.1,0-4.3,0-6.5,0,0-2.4,0-4.6,0-6.8,0-1.5-.5-2-2-1.9-1.8.2-3.7.4-5.5.7-1.7.2-2,.6-2,2.4,0,1.8,0,3.7,0,5.7-1.4,0-2.6,0-3.8,0-1,0-1.5.5-1.5,1.4,0,1.1,0,2.3,0,3.4,0,1.2.6,1.7,1.7,1.7,1.2,0,2.4,0,3.7,0,0,.7,0,1.2,0,1.7,0,6.7,0,13.4.1,20.1.1,5.4,2.3,8.4,6.6,9.7,4.8,1.4,9.4.7,14-1.1.9-.4,1.2-1.1,1-2Z"/>
    <path class="cls-1" d="M215.3,80.5c-.4-1.7-.6-1.8-2.4-1.3-1.3.3-2.7.6-4,.8-2.7.3-4.4-1-5-3.6-.1-.6-.2-1.1-.2-1.7,0-6.2,0-12.4,0-18.5,0-.2.1-.5.2-.8.5,0,.8,0,1.2,0,2.3,0,4.6,0,6.9,0,1.6,0,1.9-.4,1.9-2,0-.8,0-1.7,0-2.5,0-1.9-.1-2-2.1-2-2.7,0-5.4,0-8,0-.1-.2-.2-.3-.2-.4,0-2.2,0-4.3,0-6.5,0-1.5-.5-1.9-1.9-1.8-1.9.2-3.8.4-5.7.7-1.6.2-1.9.6-1.9,2.3,0,1.9,0,3.8,0,5.7-1.3,0-2.5,0-3.6,0-1.3,0-1.8.5-1.7,1.8,0,1.1,0,2.2,0,3.3,0,.9.4,1.4,1.3,1.4,1.3,0,2.6,0,4,0,0,.7,0,1.2,0,1.7,0,6.7,0,13.3,0,20,.1,5.9,2.6,9.1,7.7,10.2,4.4.9,8.6.3,12.7-1.3,1.1-.4,1.4-1.3,1.2-2.3-.2-1-.4-2-.6-3Z"/>
    <path class="cls-1" d="M185.9,80.1c-.6-2-.7-2.1-2.6-1.3-2.5,1-5,1.5-7.6,1.5-4.6,0-7.9-2.3-9.4-6.8-1.2-3.7-1.3-7.4-.2-11.1,1.3-4.7,4.9-7.3,9.8-7.3,2.6,0,5.1.7,7.4,1.6,1.5.6,1.7.5,2.2-1.1.3-1.2.6-2.4.9-3.6.4-1.5.2-1.9-1.3-2.5-3.9-1.6-8-2.2-12.2-1.9-5.6.5-10.3,2.7-13.7,7.3-2.8,3.9-3.8,8.4-3.9,13.1.2,1.9.3,3.8.7,5.6,1.1,5.4,3.8,9.9,9,12.1,6.9,3,13.9,2.5,20.8-.5.9-.4,1.2-1,.9-1.9-.3-1.1-.6-2.2-.9-3.3Z"/>
    <path class="cls-1" d="M269,79.8c-.5-1.7-.7-1.8-2.3-1.1-2.6,1-5.2,1.6-8,1.6-4.4,0-7.6-2.3-9.1-6.4-1.4-3.9-1.5-8-.2-11.9,1.4-4.3,4.9-6.7,9.4-6.8,2.8,0,5.3.7,7.8,1.7,1.3.5,1.6.4,2-1,.3-1.3.6-2.6.9-3.8.4-1.3,0-2-1.2-2.5-3.2-1.3-6.6-2-10.1-2-.4,0-.9,0-1.3,0-8.3.2-14.9,5.1-17.3,13-1.5,4.9-1.5,9.9,0,14.9,1,3.7,3.1,6.8,6.2,9.1,6.3,4.6,17.4,3.9,23.5.7.9-.5.9-1.2.7-1.9-.3-1.2-.7-2.3-1-3.4Z"/>
    <path class="cls-1" d="M343.6,30.9c-1.6.2-3.1.5-4.7.7-2.1.3-2.4.5-2.4,2.7,0,14,0,28.1,0,42.1,0,3.1,0,6.2,0,9.3,0,1.4.5,1.9,1.9,1.9,1.7,0,3.4,0,5,0,2.2,0,2.5-.4,2.5-2.5,0-8.6,0-17.3,0-25.9,0-8.7,0-17.4,0-26.1,0-1.9-.6-2.4-2.4-2.1Z"/>
    <path class="cls-1" d="M499.5,85c0-8.6,0-17.2,0-25.8,0-8.8,0-17.6,0-26.3,0,8.8,0,17.6,0,26.3,0,8.6,0,17.2,0,25.8Z"/>
    <path class="cls-1" d="M490,85.7c.1,1.2.7,1.8,2,1.8,1.7,0,3.4,0,5,0,2.2,0,2.5-.3,2.5-2.5,0-8.6,0-17.2,0-25.8,0-8.8,0-17.6,0-26.3,0-1.7-.6-2.2-2.3-2-1.5.2-3.1.4-4.6.6-2.5.3-2.7.5-2.7,3.1,0,16.6,0,33.3,0,49.9,0,.4,0,.8,0,1.2Z"/>
    <path class="cls-1" d="M327.2,59.2c0,8.6,0,17.3,0,25.9,0-8.6,0-17.3,0-25.9,0-8.8,0-17.6,0-26.5,0,8.8,0,17.6,0,26.5Z"/>
    <path class="cls-1" d="M327.2,32.7c0-1.6-.6-2-2.1-1.8-1.6.2-3.1.5-4.7.7-2.4.3-2.6.5-2.6,3,0,16.7,0,33.4,0,50.2,0,.3,0,.6,0,.9,0,1.4.5,1.9,2,1.9,1.7,0,3.4,0,5,0,2.2,0,2.5-.3,2.5-2.4,0-8.6,0-17.3,0-25.9,0-8.8,0-17.6,0-26.5Z"/>
    <path class="cls-1" d="M410.7,48.8c-1.7,0-3.4,0-5.2,0-1.8,0-2.2.4-2.2,2.2,0,5.7,0,11.4,0,17.1s0,11.5,0,17.2c0,1.9.4,2.3,2.3,2.3,1.4,0,2.8,0,4.2,0,2.6,0,2.9-.2,2.9-2.9,0-10,0-19.9,0-29.9,0-1.3,0-2.6,0-3.8,0-1.7-.4-2.1-2.1-2.1Z"/>
    <path class="cls-1" d="M229.9,49.4c-2,0-4,0-6,0-1.5,0-1.9.6-1.9,2.1,0,11.3,0,22.6,0,33.9,0,1.7.5,2.2,2.2,2.2,1.7,0,3.4,0,5,0,1.8,0,2.3-.5,2.3-2.3,0-5.6,0-11.3,0-16.9,0-5.7,0-11.4,0-17.1,0-1.3-.5-1.9-1.7-2Z"/>
    <path class="cls-1" d="M418.2,98.9c-.1,0-.2,0-.4.2,0,.4-.2.8-.3,1.3-.3-.1-.4-.2-.5-.3-4.3-3-9.8-1.8-12.2,2.8-1.9,3.6-1.9,7.3-.3,11,1.1,2.7,3.3,4.2,6.2,4.5,2.5.3,4.7-.5,6.8-2,0,1.2,0,2.3,0,3.3-.3,3.2-2,4.8-5.2,4.7-1.5,0-3.1-.5-4.6-1-.8-.2-1.3-.3-1.6.6-.3.9-.8,1.7.5,2.1,1.2.4,2.3.9,3.5,1,5.4.7,10.6-1,10.8-8.3.2-5.8.1-11.6.1-17.3,0-2.8.6-2.7-2.8-2.6ZM416.3,114.1c-3.9,2.8-8.1,1.3-9-3.4-.5-2.2-.4-4.4.6-6.5,1.7-3.6,6.7-4.2,9.1-1,.3.4.5.9.5,1.4,0,.6,0,1.3,0,1.9,0,.6,0,1.3,0,1.9,0,.3,0,.6,0,.8,0,.8,0,1.7,0,2.5,0,1.1-.4,1.7-1.2,2.3Z"/>
    <path class="cls-1" d="M498.9,104c-1.3-3.9-4.4-6.1-8.4-5.6-1.8.2-3.4,1.1-5.1,1.7.2-1.6-1.1-1.3-2.3-1.3-.8,0-1.2.2-1.2,1.1,0,8.7,0,17.3,0,26,0,1.2.7,1.2,1.6,1.2.8,0,2,.4,2-1.2,0-2.6,0-5.3,0-7.9,0-.3,0-.6.1-1,4.3,3.5,11.7,2.3,13.5-4.8.7-2.7.7-5.4-.2-8.1ZM495,112.9c-1.8,3.7-6.7,4.2-9.1.8-.3-.4-.4-.9-.4-1.3,0-.7,0-1.3,0-2,0-.7,0-1.3,0-2,0-.6,0-1.2,0-1.9,0-.6,0-1.2,0-1.8,0-.7.4-1.5,1-2,3.7-3.1,8.2-1.7,9.2,3,.5,2.4.4,4.8-.6,7.1Z"/>
    <path class="cls-1" d="M448,98.3c-4.7-.3-8.3,1.8-9.5,5.9-.6,2.1-.7,4.4-.5,6.6.4,4.4,3.2,7.2,7.2,7.8,4.6.6,8.5-1.3,10.1-5.3.6-1.5.8-3.2,1.1-4.4-.2-1.6-.2-2.7-.5-3.8-.9-4.2-3.8-6.7-7.9-6.9ZM451.7,113c-.9,2.1-2.7,3.1-5,3-2.3,0-3.9-1.2-4.6-3.3-.5-1.4-.6-2.8-1-4.4.4-1.4.7-3,1.3-4.4.8-2,2.6-2.8,4.7-2.8,2.1,0,3.7,1,4.5,2.9,1.3,3,1.4,6.1,0,9.1Z"/>
    <path class="cls-1" d="M474.9,98.8c-1,0-1.9,0-1.8,1.4.1,3.7-.1,7.3,0,11,.1,2.1-.8,3-2.5,3.8-3.2,1.5-6.9,1.3-6.8-4.2,0-3.6,0-7.1,0-10.7,0-.9-.3-1.3-1.2-1.2-.4,0-.9-.1-1.3,0-.4.2-.9.6-.9.9,0,4.4-.2,8.7,0,13.1.2,3.9,2.3,5.8,6,5.9,2.4,0,4.6-.7,6.6-2.2.2,1.8.4,1.9,2.1,1.9,1.4,0,1.4-.8,1.4-1.8,0-5.5,0-10.9,0-16.4,0-1.4-.7-1.4-1.7-1.4Z"/>
    <path class="cls-1" d="M434.8,98.3c-2-.2-3.5.7-4.9,2.2-.4-1.8-.6-1.9-2.7-1.7-1.4.1-.9,1.2-.9,1.9,0,5.3,0,10.7,0,16,0,1.6.1,1.7,1.8,1.7,1.6,0,1.8-.1,1.8-1.7,0-4,0-8,0-12,0-.5,0-1.1.4-1.5,1.1-1.3,2.5-2.1,4.3-1.9,1.8.3,1-1.2,1.3-2,.3-.9-.4-1-1-1.1Z"/>
    <path class="cls-1" d="M226.9,34.5c-3.1,0-5.4,2.1-5.4,4.9,0,2.9,2.2,5,5.3,5,3,0,5.3-2.1,5.3-4.9,0-2.9-2.2-5-5.3-5Z"/>
    <path class="cls-1" d="M408,43.8c3,0,5.3-2.1,5.3-4.9,0-2.9-2.2-4.9-5.2-4.9-3,0-5.4,2.2-5.4,5,0,2.8,2.3,4.9,5.3,4.9Z"/>
    <path class="cls-3" d="M417.5,109.3c0-.3,0-.6,0-.8,0-.6,0-1.3,0-1.9,0,.6,0,1.3,0,1.9,0,.3,0,.6,0,.8Z"/>
    <path class="cls-3" d="M485.4,106.6c0,.6,0,1.2,0,1.9,0,.7,0,1.3,0,2,0-.7,0-1.3,0-2,0-.6,0-1.2,0-1.9Z"/>
  </g>
  <path class="cls-2" d="M88,44c0,24.3-19.7,44-44,44h0C19.7,88,0,68.3,0,44H0C0,19.7,19.7,0,44,0h0C68.3,0,88,19.7,88,44h0Z"/>
  <path class="cls-3" d="M14,76.1c.5.5,1.1,1,1.7,1.5,1.1.9,2.3,1.8,3.5,2.7,1.2.8,2.5,1.6,3.7,2.3.8.4,1.5.8,2.3,1.1,4.9-13.6,11.5-22.1,18.9-22.1s13.9,8.4,18.8,22c.3-.1.7-.3,1-.4,1.3-.7,2.6-1.4,3.8-2.2,1.2-.8,2.4-1.6,3.6-2.6,1-.8,1.9-1.6,2.9-2.5-2.5-31.8-15-56.1-30.1-56.1s-27.7,24.3-30.1,56.3h0ZM44.1,33.7c4.3,0,7.7,3.4,7.7,7.7s-3.4,7.7-7.7,7.7-7.7-3.4-7.7-7.7,3.4-7.7,7.7-7.7Z"/>
</svg>