<?xml version="1.0" encoding="UTF-8"?>
<svg id="Calque_1" data-name="Calque 1" xmlns="http://www.w3.org/2000/svg" version="1.1" viewBox="0 0 595.3 419">
  <defs>
    <style>
      .cls-1 {
        fill: #38aed9;
        stroke-width: 0px;
      }

      .cls-2 {
        isolation: isolate;
      }
    </style>
  </defs>
  <g id="Groupe_63" data-name="Groupe 63">
    <path id="Tracé_439" data-name="Tracé 439" class="cls-1" d="M263.4,211s5.4,67.5-41.7,57.6c-40.3-8.2-34-45.3-26.7-57.1,3.6-5.9,17.7-22.2,37.2-8.2,11.3,6.3,13.1,34.9-5.9,34.4-8.2-.9-1.4-20.8-10.4-13.6-2.3,1.8-5.9,13.6,2.7,19,28.1,16.3,34.4-24.9,23.6-36.7,6.8.9,21.3,4.5,21.3,4.5"/>
    <path id="Tracé_440" data-name="Tracé 440" class="cls-1" d="M272,212.3l15.9,2.3s-1.4,34,19.9,34.4c0,0,17.7,4.1,17.7-34.9,6.3,10.4,8.2,22.2,5.9,34-4.5,18.6-18.6,26.7-40.3,24.5-10.9-1.4-21.3-5.9-29-13.1-.5,0,10-15.4,10-47.1"/>
    <path id="Tracé_441" data-name="Tracé 441" class="cls-1" d="M332.7,212.8l26.7-5s-18.1,24.5,10.4,32.6c6.8,1.8,14-.9,17.7-7.3,2.3-4.5-1.4-9.1-3.6-5.9-3.2,4.5-8.2,10.4-17.2,4.1-12.7-8.6-4.5-24.5,3.6-27.6,8.6-3.2,20.8-5,31.3,10,11.3,17.2,5.9,40.8-20.4,52.6,0,0-30.8,12.7-45.3-12.2,0,1.4,8.6-22.7-3.2-41.2"/>
    <path id="Tracé_442" data-name="Tracé 442" class="cls-1" d="M296,215l21.8.5s.9,26.7-9.5,26.7c-15,0-12.2-27.2-12.2-27.2"/>
    <path id="Tracé_443" data-name="Tracé 443" class="cls-1" d="M408,119.4c2.3-75.7-20.4-83.8-40.8-92.4-29.9-12.7-106-8.2-129.6-6.3-53.5,3.6-50.3,81.6-50.3,110.1-.9,31.7,20.4,59.8,50.8,68,36.7,10.9,77.9,12.7,125.1,2.7,52.1-11.3,44.9-82,44.9-82M360.8,170.2c-26.7,15-84.3,10-106,5.4-21.8-4.1-39.9-19.9-42.1-52.6-2.3-32.6,1.4-68.4,26.7-77.5,11.8-3.6,51.7-5.9,86.6-2.7,34.9,3.2,47.1,10.4,54.8,35.8,7.3,25.4,3.6,81.6-19.9,91.5Z"/>
    <path id="Tracé_444" data-name="Tracé 444" class="cls-1" d="M220.8,122.6s40.8-8.6,40.8,19.9c2.7-11.3,9.5-30.8,30.4-31.3,26.7-.9,34.9,17.2,34.9,33.5.9-8.6.9-29.9,31.3-29,5.9,0,11.8,1.8,17.2,5,0,0,.5,44.9-34,48.9-23.1,3.2-46.7,3.6-70.2,1.4-21.3-3.2-47.1-8.6-50.3-48.5"/>
    <path id="Tracé_445" data-name="Tracé 445" class="cls-1" d="M243.5,111.7s15-2.3,19,9.5c6.8-12.2,19.5-19.5,33.1-19.5s24.9,6.3,32.2,17.2c4.1-8.6,13.6-13.6,23.1-12.2,0,0,.5-25.8-8.6-31.7-9.1-5.9-35.3-8.2-45.8-8.2s-34,1.8-41.7,8.2c-6.8,5.9-11.3,36.7-11.3,36.7Z"/>
    <path id="Tracé_446" data-name="Tracé 446" class="cls-1" d="M219.9,112.6l17.7-1.4s1.4-38.5,16.8-43.5c15-5.4,43.1-6.8,43.1-6.8,0,0,41.7,2.3,50.3,10.4,8.6,8.2,9.5,28.5,10.9,36.7,6.3-.9,12.2,0,18.1,1.8,0-13.1-2.7-26.7-8.2-38.5-8.2-17.7-38.1-22.2-76.1-22.7-38.5,0-53.5,5.4-61.6,15.9-15,18.1-10.9,48-10.9,48Z"/>
  </g>
  <g>
    <g class="cls-2">
      <path class="cls-1" d="M75.4,338c-8.5,0-15.4,6.9-15.4,15.4s6.9,15.4,15.4,15.4,7.7-1.6,11.4-4.5l11.8,12.6c-5.7,5.7-14.2,9.3-23.2,9.3-18.3,0-32.9-14.6-32.9-32.9s14.6-32.9,32.9-32.9,16.7,3.2,23.2,9.3l-11.8,13c-3.7-3.2-6.9-4.9-11.4-4.9Z"/>
    </g>
    <g class="cls-2">
      <path class="cls-1" d="M113.2,392.8l-15-9.3,42.2-68.2,41.8,68.2-15,9.3-5.7-8.9h-42.6l-5.7,8.9ZM140.4,349l-11,17.9h21.9l-11-17.9Z"/>
    </g>
    <g class="cls-2">
      <path class="cls-1" d="M237.5,329.5c-8.9,0-15.4,6.5-15.4,14.6v19.1c0,18.3-15.4,32.1-32.9,32.1h-2.4v-17.1h2.4c8.9,0,15.4-6.5,15.4-14.6v-19.1c0-18.3,15.4-32.1,32.9-32.1h2.4v17.1c-.8,0-1.2,0-2.4,0Z"/>
    </g>
    <path class="cls-1" d="M243.2,392.8l-15-9.3,42.2-68.2,42.2,68.2-15,9.3-5.7-8.9h-43.1l-5.7,8.9ZM270.4,349l-11,17.9h21.9l-11-17.9Z"/>
    <path class="cls-1" d="M343.5,313.2l21.5,49.1,21.5-49.1,29.2,67-15.4,6.9-13.8-31.7-21.5,49.1-21.5-49.1-13.8,31.7-15.4-6.5,29.2-67.4Z"/>
    <path class="cls-1" d="M449.9,377.8h2.4v17.1h-2.4c-18.3,0-32.9-14.6-32.9-32.9v-8.5c0-18.3,14.6-32.9,32.9-32.9s32.9,14.6,32.9,32.9v11.4h-48.3c1.2,7.3,7.7,13,15.4,13ZM449.9,338c-6.5,0-12.2,4.1-14.2,9.3h28.4c-2.4-5.3-7.7-9.3-14.2-9.3Z"/>
    <path class="cls-1" d="M540.9,317.3l12.2,12.2-23.6,23.6,23.6,23.6-12.2,12.2-23.6-23.6-23.6,23.6-12.2-12.2,23.6-23.6-23.6-23.6,12.2-12.2,23.6,23.6,23.6-23.6Z"/>
  </g>
</svg>