<?xml version="1.0" encoding="UTF-8"?>
<svg id="Calque_1" data-name="Calque 1" xmlns="http://www.w3.org/2000/svg" version="1.1" viewBox="0 0 1510.4 510.2">
  <defs>
    <style>
      .cls-1 {
        fill: #2d85eb;
        fill-rule: evenodd;
      }

      .cls-1, .cls-2 {
        stroke-width: 0px;
      }

      .cls-2 {
        fill: #2d2e4b;
      }
    </style>
  </defs>
  <path class="cls-1" d="M407.1,58.1c0-26.4-22.6-47.6-49.6-45.2-23.6,2.1-41.4,22.3-41.4,45.9v112c-32.6-16.8-71.4-23.4-112.1-15.2-57.1,11.5-115.4,67.3-128.6,124-26.7,114.4,63.6,215.7,175.2,208.1,88.4-6,156.5-80.5,156.5-169.1V58.1h0ZM239.1,397.2c-42.6,0-77.1-34.5-77.1-77.1s34.5-77.1,77.1-77.1,77.1,34.5,77.1,77.1-34.5,77.1-77.1,77.1Z"/>
  <g>
    <path class="cls-2" d="M548.7,366.4c-10.3,0-19.4-2.5-27.5-7.5-8.1-5-14.3-11.9-18.8-20.7-4.5-8.8-6.7-18.8-6.7-29.9s2.3-21.1,6.8-29.8c4.5-8.7,10.9-15.6,19-20.7,8.1-5.1,17.3-7.6,27.6-7.6s15.6,1.6,21.9,4.7c6.2,3.2,11.2,7.6,14.8,13.3v-62.9h26.4v158.3h-23.8l-2.6-16.1c-2.3,3.2-5.2,6.3-8.6,9.1-3.4,2.9-7.4,5.2-12.1,6.9-4.7,1.8-10.2,2.6-16.5,2.6ZM554.2,343.5c6.3,0,11.9-1.5,16.7-4.5,4.8-3,8.6-7.1,11.2-12.4,2.6-5.3,4-11.4,4-18.3s-1.3-13-4-18.3c-2.6-5.3-6.4-9.4-11.2-12.3-4.8-2.9-10.4-4.4-16.7-4.4s-11.4,1.5-16.3,4.4c-4.8,2.9-8.6,7-11.3,12.3-2.7,5.3-4.1,11.4-4.1,18.3s1.4,13,4.1,18.3c2.7,5.3,6.5,9.4,11.3,12.4,4.8,3,10.3,4.5,16.3,4.5Z"/>
    <path class="cls-2" d="M655.8,235.3c-4.8,0-8.8-1.5-12-4.5-3.2-3-4.7-6.7-4.7-11.1s1.6-8.2,4.7-11.1c3.2-2.9,7.1-4.3,12-4.3s8.8,1.4,12,4.3c3.2,2.9,4.7,6.6,4.7,11.1s-1.6,8.1-4.7,11.1c-3.2,3-7.1,4.5-12,4.5ZM642.6,363.8v-110.8h26.4v110.8h-26.4Z"/>
    <path class="cls-2" d="M746.2,414.8c-10.4,0-19.5-1.3-27.4-3.8-7.8-2.6-13.9-6.5-18.3-11.7-4.3-5.2-6.5-11.7-6.5-19.5s1.1-9,3.4-13.3c2.3-4.3,5.7-8.4,10.3-12.1,4.6-3.7,10.5-7,17.7-9.8l11.7,12.8c-7,2.5-12,5.5-14.7,9-2.8,3.5-4.2,7.1-4.2,10.8s1.2,7,3.6,9.6c2.4,2.6,5.7,4.5,9.9,5.8,4.2,1.3,8.9,2,14.2,2s9.6-.7,13.4-2.1c3.8-1.4,6.8-3.3,8.9-5.8,2.1-2.5,3.2-5.5,3.2-9s-1.5-8-4.6-10.7c-3.1-2.7-9.2-4.4-18.3-4.9-7.8-.6-14.6-1.4-20.5-2.5-5.9-1.1-10.9-2.4-15.1-3.8-4.2-1.5-7.7-3.1-10.7-4.9-2.9-1.8-5.4-3.7-7.3-5.6v-5.1l23.1-24.2,19.6,6.4-25.9,25.3,6.8-12.8c1.5,1,3,2,4.5,2.9s3.5,1.6,5.9,2.3c2.4.7,5.6,1.3,9.6,1.9,4,.6,9.1,1.2,15.4,1.8,9.8.7,17.8,2.5,24,5.3,6.2,2.8,10.7,6.5,13.6,11.2,2.9,4.7,4.4,10.3,4.4,16.9s-1.8,12.5-5.4,18.3c-3.6,5.7-9.1,10.4-16.4,14.1-7.3,3.7-16.7,5.5-28.1,5.5ZM746.2,330.6c-9.2,0-17.2-1.8-23.9-5.4-6.7-3.6-11.8-8.4-15.3-14.5-3.5-6.1-5.3-12.8-5.3-20.1s1.8-14.2,5.3-20.2c3.5-6,8.6-10.8,15.3-14.5,6.7-3.7,14.6-5.5,23.9-5.5s17.2,1.8,23.8,5.5c6.6,3.7,11.7,8.5,15.2,14.5,3.5,6,5.3,12.8,5.3,20.2s-1.8,14-5.3,20.1c-3.5,6.1-8.6,10.9-15.2,14.5-6.6,3.6-14.5,5.4-23.8,5.4ZM746.2,310.1c6.3,0,11.4-1.7,15.2-5.1,3.8-3.4,5.7-8.2,5.7-14.5s-1.9-11.1-5.7-14.4c-3.8-3.3-8.9-4.9-15.2-4.9s-11.4,1.6-15.4,4.9c-4,3.3-5.9,8.1-5.9,14.4s2,11.1,5.9,14.5c4,3.4,9.1,5.1,15.4,5.1ZM764.4,272.3l-5.1-19.4h45.5v16.7l-40.5,2.6Z"/>
    <path class="cls-2" d="M842.5,235.3c-4.8,0-8.8-1.5-12-4.5-3.2-3-4.7-6.7-4.7-11.1s1.6-8.2,4.7-11.1c3.2-2.9,7.1-4.3,12-4.3s8.8,1.4,12,4.3c3.2,2.9,4.7,6.6,4.7,11.1s-1.6,8.1-4.7,11.1c-3.2,3-7.1,4.5-12,4.5ZM829.3,363.8v-110.8h26.4v110.8h-26.4Z"/>
    <path class="cls-2" d="M886.2,363.8v-110.8h23.3l2.2,15.2c3.5-5.6,8.2-9.9,14-13.1,5.8-3.2,12.4-4.7,19.9-4.7s10.6.7,15.1,2.2c4.5,1.5,8.4,3.7,11.9,6.6,3.4,2.9,6.3,6.6,8.5,11,4.1-6.2,9.5-11,16.1-14.5s13.8-5.3,21.6-5.3,17.1,1.9,23.5,5.6c6.4,3.7,11.4,9.2,14.7,16.5,3.4,7.3,5.1,16.2,5.1,26.7v64.7h-26.2v-62c0-9.4-1.9-16.6-5.7-21.6-3.8-5-9.5-7.5-16.9-7.5s-9.6,1.2-13.5,3.7c-3.9,2.5-6.9,6.1-9.1,10.9-2.2,4.8-3.3,10.6-3.3,17.5v58.9h-26.2v-62c0-9.4-1.9-16.6-5.7-21.6-3.8-5-9.5-7.5-17.2-7.5s-9.2,1.2-13.1,3.7c-3.9,2.5-6.9,6.1-9.1,10.9-2.2,4.8-3.3,10.6-3.3,17.5v58.9h-26.4Z"/>
    <path class="cls-2" d="M1104.2,235.3c-4.8,0-8.8-1.5-12-4.5-3.2-3-4.7-6.7-4.7-11.1s1.6-8.2,4.7-11.1c3.2-2.9,7.1-4.3,12-4.3s8.8,1.4,12,4.3c3.2,2.9,4.7,6.6,4.7,11.1s-1.6,8.1-4.7,11.1c-3.2,3-7.1,4.5-12,4.5ZM1091,363.8v-110.8h26.4v110.8h-26.4Z"/>
    <path class="cls-2" d="M1189,366.4c-8.9,0-16.6-1.8-23-5.4-6.4-3.6-11.3-9-14.6-16.3-3.4-7.3-5.1-16.2-5.1-26.9v-64.9h26.4v62.2c0,9.5,2,16.8,6,21.7,4,4.9,10.2,7.4,18.4,7.4s10-1.2,14.2-3.7c4.2-2.5,7.5-6.1,9.9-10.9,2.4-4.8,3.6-10.6,3.6-17.5v-59.2h26.4v110.8h-23.3l-2-18.5c-3.4,6.5-8.2,11.6-14.6,15.4-6.4,3.8-13.8,5.7-22.3,5.7Z"/>
    <path class="cls-2" d="M1280.7,363.8v-110.8h23.3l2.2,15.2c3.5-5.6,8.2-9.9,14-13.1,5.8-3.2,12.4-4.7,19.9-4.7s10.6.7,15.1,2.2c4.5,1.5,8.4,3.7,11.9,6.6,3.4,2.9,6.3,6.6,8.5,11,4.1-6.2,9.5-11,16.1-14.5s13.8-5.3,21.6-5.3,17.1,1.9,23.5,5.6c6.4,3.7,11.4,9.2,14.7,16.5,3.4,7.3,5.1,16.2,5.1,26.7v64.7h-26.2v-62c0-9.4-1.9-16.6-5.7-21.6-3.8-5-9.5-7.5-16.9-7.5s-9.6,1.2-13.5,3.7c-3.9,2.5-6.9,6.1-9.1,10.9-2.2,4.8-3.3,10.6-3.3,17.5v58.9h-26.2v-62c0-9.4-1.9-16.6-5.7-21.6-3.8-5-9.5-7.5-17.2-7.5s-9.2,1.2-13.1,3.7c-3.9,2.5-6.9,6.1-9.1,10.9-2.2,4.8-3.3,10.6-3.3,17.5v58.9h-26.4Z"/>
  </g>
</svg>