<svg width="296" height="51" viewBox="0 0 296 51" fill="none" xmlns="http://www.w3.org/2000/svg">
<path d="M97.1448 0.132625V29.3447C97.1902 31.7529 96.6031 34.1309 95.4423 36.2411C94.3053 38.2574 92.6088 39.9012 90.5581 40.9737C88.2066 42.1038 85.6312 42.6906 83.0224 42.6906C80.4136 42.6906 77.8382 42.1038 75.4867 40.9737C73.4415 39.8934 71.7471 38.2516 70.6025 36.2411C69.4264 34.1358 68.8293 31.7561 68.8721 29.3447V0.132625H57.3872L60.1782 4.79538V30.0427C60.109 33.7795 61.0906 37.4607 63.0111 40.6665C64.9482 43.7845 67.7177 46.2988 71.0072 47.9259C74.7706 49.6602 78.8649 50.5582 83.0084 50.5582C87.1519 50.5582 91.2463 49.6602 95.0097 47.9259C98.2902 46.2964 101.05 43.782 102.978 40.6665C104.898 37.4607 105.88 33.7795 105.811 30.0427V4.79538L108.602 0.132625H97.089H97.1448ZM39.4831 0.006987H0.5L3.36075 4.76049V45.7691L0.5 50.4388H14.9643L12.1733 45.7621V28.9538H32.1637L36.9223 31.8157V18.5533L32.1428 21.4012H12.1454V7.58049L39.4831 8.55771L44.8278 8.89275L39.4831 0.006987ZM137.921 42.8653V28.9538H158.993L163.752 31.8017V18.5394L159.007 21.4012H137.921V7.58049L165.656 8.55771L171.001 8.89275L165.656 0.0209397H126.276L129.136 4.77444V45.6923L126.276 50.4388H165.991L171.343 41.553L165.991 41.8881L137.921 42.8653ZM232.919 0.006987H225.488L209.273 39.6265H208.617L192.408 0.006987H181.118L184.796 4.55806L203.858 50.4388H214.01L233.094 4.51618L236.743 0.006987H232.905H232.919ZM295.5 41.5321L290.148 41.8671L262.078 42.8444V28.9259H283.143L287.902 31.7808V18.5184L283.157 21.3803H262.078V7.55256L289.806 8.53677L295.151 8.87181L289.806 0H250.433L253.286 4.74654V45.6783L250.433 50.4248H290.148L295.5 41.5321Z" fill="#1D1D1B"/>
</svg>
