<?xml version="1.0" encoding="UTF-8"?>
<!-- Generator: Adobe Illustrator 27.1.0, SVG Export Plug-In . SVG Version: 6.00 Build 0)  -->
<svg xmlns="http://www.w3.org/2000/svg" xmlns:xlink="http://www.w3.org/1999/xlink" version="1.1" id="Calque_1" x="0px" y="0px" viewBox="0 0 761.9 213.3" style="enable-background:new 0 0 761.9 213.3;" xml:space="preserve">
<style type="text/css">
	.st0{fill:#020203;}
	.st1{fill:#020203;stroke:#1E1E1C;stroke-width:14.2101;stroke-miterlimit:10;}
</style>
<g>
	<path class="st0" d="M89.8,151.7l-38-42.9v42.9H37.4V61.8h14.5v41.1l36.3-41.1h18.2l-38.8,43.8l40.5,46.1H89.8z"/>
	<path class="st0" d="M206.3,76.2l-28.6,75.5h-15.4l34.8-89.8h18.5l34.8,89.8H235L206.3,76.2z"/>
	<path class="st0" d="M366.5,137.8v13.9h-55.4V61.8h14.5v76H366.5z"/>
	<path class="st0" d="M427,61.8h14.5v89.8H427V61.8z"/>
	<path class="st0" d="M546.3,76.2l-28.6,75.5h-15.4L537,61.8h18.5l34.8,89.8h-15.4L546.3,76.2z"/>
	<path class="st0" d="M725.5,61.8v89.8h-17.2l-44.9-69.4l1.4,31.8v37.6h-14.5V61.8h17.1l44.9,69.3L711,99.4V61.8H725.5z"/>
</g>
<line class="st1" x1="9.5" y1="196.6" x2="751.5" y2="196.6"/>
<line class="st1" x1="9.5" y1="16.9" x2="751.5" y2="16.9"/>
</svg>