<?xml version="1.0" encoding="UTF-8"?>
<svg id="Calque_1" data-name="Calque 1" xmlns="http://www.w3.org/2000/svg" version="1.1" viewBox="0 0 174.7 31">
  <defs>
    <style>
      .cls-1 {
        fill: #003c43;
        stroke-width: 0px;
      }
    </style>
  </defs>
  <path class="cls-1" d="M75.9,21.6c-.7-.3-1.3-.5-1.1-2.3.3-2.3,1-7.5,1.1-8.6,0,0,0-.1-.1-.2-.5-.1-1.2-.2-1.9-.2s-1.1,0-1.8.2c0,0-.1,0-.1.2l-.4,1.8h0c-.6-1.5-1.9-2.3-3.6-2.3-3.3,0-5.3,3.1-5.8,6.7-.5,3.8.8,7,4,7s3.5-1,4.4-2.7h0c0,1.8.9,2.8,2.4,2.8s3-1.3,3.1-2c0-.2,0-.2-.2-.3ZM71.2,17.1c-.3,2.2-1.6,4.1-3.2,4.1s-2.4-1.7-2.1-4.3c.3-2.4,1.6-4,3.1-4s2.4,1.9,2.2,4.2Z"/>
  <path class="cls-1" d="M89.5,10.1c-1.8,0-3.4,2.1-4.1,4.3h-.1c-.4-2-1.7-4.3-3.9-4.3s-3.1,1.6-3.2,2.6c0,.2,0,.3.3.4.3,0,.5,0,1,.1,1.4.3,2.3,2.2,2.9,4-.9,1.6-2.2,3-3.4,3-.3,0-.5,0-.7-.1-.2,0-1,.4-1.1,1.5-.2,1.3.5,2.4,2.1,2.4s3.5-2.5,4.1-4.8h.1c.4,2.3,1.8,4.8,4.1,4.8s3.2-1.7,3.2-2.6c0-.2,0-.3-.3-.4-.3,0-.6-.1-.9-.3-1.6-.7-2.5-2.9-3.1-4.7.9-1.3,2.2-2.6,3.3-2.6s.5,0,.7,0c.3.1,1-.7,1.1-1.6.1-1.1-.7-2-1.9-2Z"/>
  <path class="cls-1" d="M97.3,21.6c-.7-.3-1.3-.5-1.1-2.3l1.1-8.7c0,0,0-.1,0-.1-.5-.1-1.2-.2-1.9-.2s-1.3,0-1.9.2c0,0-.1,0-.1.1l-1.3,10.4c-.2,1.8.8,2.9,2.4,2.9s3-1.6,3.1-2c0-.2,0-.2-.2-.3Z"/>
  <path class="cls-1" d="M96.2,4.1c-1.4,0-2.7,1-2.8,2.2-.1,1.2.9,2.1,2.3,2.1s2.7-.9,2.8-2.1c.2-1.2-.9-2.2-2.3-2.2Z"/>
  <path class="cls-1" d="M121.8,10.2c-4-.1-7.2,2.9-7.7,6.9-.5,4.3,2.1,6.9,6,7,4.2.1,7.2-2.9,7.7-7,.5-4.1-2-6.8-6-6.9ZM123.8,17.1c-.3,2.6-1.5,4.6-3.4,4.6s-2.7-1.8-2.3-4.7c.3-2.7,1.6-4.6,3.4-4.6s2.6,2.2,2.3,4.7Z"/>
  <path class="cls-1" d="M152.2,10.2c-4,0-7.2,2.7-7.7,6.9-.5,4.2,2,6.8,6,6.8s6-2.9,6.1-3.9c0-.1,0-.3-.2-.3-.5,0-1.8,1.5-4.6,1.5s-3.5-1.2-3.4-3.2c.3,0,1.5.4,2.9.4,2.3,0,5.6-1,6-4.2.2-1.8-1.2-4.1-5.1-4ZM153.4,14.1c-.2,1.4-1.6,2.2-3.4,2.2s-1.4-.1-1.4-.1c.3-1.9,1.4-3.9,3.2-3.9s1.8.8,1.7,1.7Z"/>
  <path class="cls-1" d="M170.7,14.2c.2-1.8-1.2-4.1-5.1-4-4,0-7.2,2.7-7.7,6.9-.5,4.2,2,6.8,6,6.8s6-2.9,6.1-3.9c0-.1,0-.3-.2-.3-.5,0-1.8,1.5-4.6,1.5s-3.5-1.2-3.4-3.2c.3,0,1.5.4,2.9.4,2.3,0,5.6-1,6-4.2ZM162,16.2c.3-1.9,1.4-3.9,3.2-3.9s1.8.8,1.7,1.7c-.2,1.4-1.6,2.2-3.4,2.2s-1.4-.1-1.4-.1Z"/>
  <path class="cls-1" d="M145.2,12.2l.2-1.5c0-.1,0-.1,0-.1h-2.8l.2-2c.2-1.4.5-3,2.2-3s1.5.3,1.8.3.3,0,.3-.3c0-.8-1.5-2.1-3.4-2.1-3.2,0-4.5,2-4.9,4.8l-.3,2.2h-3.9l.2-2c.2-1.4.5-3,2.2-3s1.5.3,1.8.3.3,0,.3-.3c0-.8-1.5-2.1-3.4-2.1-3.2,0-4.5,2-4.9,4.8l-.3,2.2h-1.3s-.1,0-.1.1l-.2,1.6c0,.1,0,.1,0,.1h1.3s-.4,6.1-1,10.4c-.6,4.3-1.8,5.3-2.9,5.6-.4.1-.4.7.2.7s4.7-.6,6-5.3c1-3.5,1.7-11.5,1.7-11.5h3.9s-.4,6.1-1,10.4c-.6,4.3-1.8,5.3-2.9,5.6-.4.1-.4.7.2.7s4.7-.6,6-5.3c1-3.5,1.7-11.5,1.7-11.5h2.7s.1,0,.1-.1Z"/>
  <path class="cls-1" d="M58.2,3.4s-2.3-.8-3.5,2.6c0,0-1.2,6-3.5,10.3,0,0-.3-8.9-2.6-10,0,0-2.4-.9-3.4,1.7,0,0-1,5.7-3,8.8,0,0-2.3,3.8-4.9,2.6,0,0-2-.8-1.6-2.9v-.5c.1,0,.5-.9,0-1-.5,0-.9.3-1.2.6,0,0-3.6,3.8,0,7.2,0,0,1.7,1.5,4.3,1,.1,0,.3,0,.4,0,0,0,0,0,0,0,1.5-.4,2.5-1.1,3-1.7.5-.5,1-1.1,1.4-2,1.3-2.5,2.2-5.4,2.7-8.3.2,1.3.7,6,.8,9.6,0,0,0,2,1,2.7h0s0,0,0,0c0,0,0,0,0,0,0,0,0,0,0,0,.2,0,.5.2.8.1,0,0,1,0,1.7-1.7.7-1.4,3.3-7.1,4.4-10.3.2-.4.3-.8.4-1,0,0,.4,8.1,0,12.4h0s0,0,0,0c0,0,0,0,0,0,0,0,0,0,0,0,.4.9,1.6.8,1.6.8,1.1,0,2-1,2.2-1.4.3-1.5.4-4.2.4-4.9.1-3.3.3-10.3-.5-13.7,0,0-.3-.8-1.4-1.2Z"/>
  <path class="cls-1" d="M111.4,11.9c1.7,0,2.4-1.6,2.6-2.8.3-2.9-2-4.8-5.2-4.8-4.9,0-8.6,4.9-9.3,9.9-.8,5.7,1.6,9.8,6.6,9.8s6.7-3.9,6.9-5.5c0-.2-.1-.4-.4-.4-.6,0-2,2.3-5,2.3s-4.5-3.4-4-7.2c.5-3.3,2.4-6.4,4.5-6.5,1.5,0,2.1,1.2,2,2.7,0,.8-.3,1.4-.3,1.6,0,.4.7.9,1.6.9Z"/>
  <path class="cls-1" d="M4,17.2c-.4,2.1,1.5,2.8,1.5,2.8,2.5,1.1,4.6-2.5,4.6-2.5,1.9-2.9,2.9-8.3,2.9-8.3.9-2.4,3.2-1.6,3.2-1.6,2.2,1,2.5,9.4,2.5,9.4,2.1-4.1,3.3-9.8,3.3-9.8.6-1.6,1.5-2.2,2.2-2.4-2.4-2-5.5-3.3-8.9-3.3C7.6,1.6,1.4,7.7,1.4,15.4s.1,2,.3,2.9c.4-1.1,1.2-1.9,1.2-1.9.2-.3.7-.7,1.1-.6.5,0,0,1,0,1v.5Z"/>
  <path class="cls-1" d="M27.1,18.9c0,.6-.1,2.5-.3,3.9,1.4-2.1,2.2-4.7,2.2-7.4s-.8-5.2-2.1-7.3c.4,3.4.3,8.3.2,10.8Z"/>
  <path class="cls-1" d="M23.1,24c0,0,0,0,0,0,0,0,0,0,0,0,0,0,0,0,0,0h0c.4-4.1,0-11.7,0-11.7,0,.3-.2.6-.3,1-1.1,3-3.5,8.4-4.2,9.7-.7,1.5-1.7,1.6-1.7,1.6-.3,0-.6,0-.8-.1,0,0,0,0,0,0,0,0,0,0,0,0,0,0,0,0,0,0h0c-1-.7-1-2.6-1-2.6-.1-3.4-.6-7.9-.8-9.1-.5,2.8-1.3,5.5-2.6,7.9-.4.8-.9,1.4-1.3,1.9-.5.5-1.5,1.3-2.9,1.6,0,0,0,0,0,0-.1,0-.2,0-.4,0-1,.2-1.9,0-2.6-.2,2.5,3.2,6.4,5.2,10.8,5.2s7.7-1.7,10.2-4.5c-.3.1-.5.2-.8.2,0,0-1.1,0-1.5-.8Z"/>
</svg>