<?xml version="1.0" encoding="utf-8"?>
<!-- Generator: Adobe Illustrator 26.0.2, SVG Export Plug-In . SVG Version: 6.00 Build 0)  -->
<svg version="1.1" id="Calque_1" xmlns="http://www.w3.org/2000/svg" xmlns:xlink="http://www.w3.org/1999/xlink" x="0px" y="0px"
	 viewBox="0 0 640.59 309.93" style="enable-background:new 0 0 640.59 309.93;" xml:space="preserve">
<style type="text/css">
	.st0{fill:#0C2340;}
	.st1{fill:url(#SVGID_1_);}
	.st2{fill:url(#SVGID_00000039117095537345910530000002628057720560480678_);}
	.st3{fill:url(#SVGID_00000049911872122941086420000007310256708141610669_);}
	.st4{fill:url(#SVGID_00000129891369454452972820000013371746819101998767_);}
</style>
<g>
	<path class="st0" d="M273.88,126.45c-10.47-0.2-20.37,4.96-27.06,13.79v-12.8c0-0.54-0.44-0.99-0.99-0.99h-6.2
		c-0.54,0-0.99,0.44-0.99,0.99v103.15c0,0.54,0.44,0.99,0.99,0.99h6.2c0.54,0,0.99-0.44,0.99-0.99v-41.49
		c6.63,8.62,16.48,13.67,26.89,13.67c19.33,0,35.06-17.12,35.06-38.16C308.78,143.57,293.12,126.45,273.88,126.45z M273.72,194.6
		c-14.83,0-26.89-13.45-26.89-29.98c0.31-16.6,12.3-30,26.81-30c0.08,0,0.16,0,0.24,0c14.74,0,26.74,13.45,26.74,29.99
		C300.61,181.14,288.55,194.6,273.72,194.6z"/>
	<path class="st0" d="M388.34,126.45h-6.2c-0.54,0-0.99,0.44-0.99,0.99v12.69c-6.63-8.62-16.48-13.67-26.89-13.67
		c-19.33,0-35.06,17.12-35.06,38.16c0,21.04,15.73,38.16,35.06,38.16c10.42,0,20.26-5.06,26.89-13.67v12.69
		c0,0.54,0.44,0.99,0.99,0.99h6.2c0.54,0,0.99-0.44,0.99-0.99v-74.34C389.33,126.89,388.89,126.45,388.34,126.45z M354.27,194.6
		c-14.83,0-26.89-13.45-26.89-29.99c0-16.54,12.06-29.99,26.89-29.99s26.89,13.45,26.89,29.99
		C381.16,181.14,369.1,194.6,354.27,194.6z"/>
	<path class="st0" d="M451.55,126.45h-3.1c-11.87,0-21.74,4.27-28.13,12.09v-11.1c0-0.54-0.44-0.99-0.99-0.99h-6.19
		c-0.54,0-0.99,0.44-0.99,0.99v74.34c0,0.54,0.44,0.99,0.99,0.99h6.19c0.54,0,0.99-0.44,0.99-0.99v-37.94
		c0.15-18.03,10.93-29.23,28.13-29.23h3.1c0.54,0,0.99-0.44,0.99-0.99v-6.2C452.54,126.89,452.09,126.45,451.55,126.45z"/>
	<path class="st0" d="M471.69,126.45h-6.2c-0.54,0-0.99,0.44-0.99,0.99v74.34c0,0.54,0.44,0.99,0.99,0.99h6.2
		c0.54,0,0.99-0.44,0.99-0.99v-74.34C472.67,126.89,472.23,126.45,471.69,126.45z"/>
	<path class="st0" d="M471.84,107.71h-6.35c-0.54,0-0.99,0.44-0.99,0.99v6.19c0,0.54,0.44,0.99,0.99,0.99h6.35
		c0.54,0,0.99-0.44,0.99-0.99v-6.19C472.83,108.15,472.39,107.71,471.84,107.71z"/>
	<path class="st0" d="M527.45,126.45h-20.54v-18.38c0-0.54-0.44-0.99-0.99-0.99h-6.19c-0.54,0-0.99,0.44-0.99,0.99v18.38h-11.56
		c-0.54,0-0.99,0.44-0.99,0.99v6.2c0,0.54,0.44,0.99,0.99,0.99h11.56v46.89c0.16,13.71,9.26,21.26,25.61,21.26h3.1
		c0.54,0,0.99-0.44,0.99-0.99v-6.2c0-0.54-0.44-0.99-0.99-0.99h-3.1c-7.86,0-17.27-2.28-17.45-13.11v-46.87h20.54
		c0.54,0,0.99-0.44,0.99-0.99v-6.2C528.44,126.89,527.99,126.45,527.45,126.45z"/>
	<path class="st0" d="M570.82,126.45c-19.33,0-35.06,17.12-35.06,38.16c0,21.04,15.73,38.16,35.05,38.16c0.15,0,0.3,0,0.44,0
		c12.53,0,22.55-5.14,29.8-15.28c0.31-0.44,0.22-1.04-0.21-1.36l-4.96-3.72c-0.21-0.16-0.48-0.23-0.74-0.19s-0.5,0.18-0.65,0.4
		c-5.82,8.06-13.42,11.98-23.23,11.98c-0.14,0-0.29,0-0.44,0c-13.55,0-24.83-11.06-26.63-25.91h60.71c0.54,0,0.99-0.44,0.99-0.99
		v-3.1C605.88,143.57,590.15,126.45,570.82,126.45z M544.19,160.52c1.8-14.84,13.08-25.91,26.63-25.91
		c14.99,0,26.29,13.47,26.87,25.91H544.19z"/>
	<path class="st0" d="M629.68,92.37h-6.19c-0.54,0-0.99,0.44-0.99,0.99v108.42c0,0.54,0.44,0.99,0.99,0.99h6.19
		c0.54,0,0.99-0.44,0.99-0.99V93.36C630.67,92.82,630.23,92.37,629.68,92.37z"/>
</g>
<linearGradient id="SVGID_1_" gradientUnits="userSpaceOnUse" x1="144.7821" y1="68.467" x2="202.5261" y2="49.3416">
	<stop  offset="0.2019" style="stop-color:#5BC2E7"/>
	<stop  offset="1" style="stop-color:#007FA3"/>
</linearGradient>
<path class="st1" d="M163.4,111.05c19.59-6.36,33.78-24.73,33.78-46.44c0-13.89-0.4-48.86-0.4-48.86s-24.29,0-40.07,0
	c8.34,16.82,13.05,35.76,13.05,55.8C169.76,85.36,167.51,98.63,163.4,111.05z"/>
<linearGradient id="SVGID_00000130622302326527821900000003450133599629722511_" gradientUnits="userSpaceOnUse" x1="100.9279" y1="191.1472" x2="209.6105" y2="238.1569">
	<stop  offset="0.1771" style="stop-color:#5BC2E7"/>
	<stop  offset="0.3727" style="stop-color:#4AB6DA"/>
	<stop  offset="0.7568" style="stop-color:#1F96BA"/>
	<stop  offset="1" style="stop-color:#007FA3"/>
</linearGradient>
<path style="fill:url(#SVGID_00000130622302326527821900000003450133599629722511_);" d="M209.45,130.12
	c-0.83-1.57-2.46-2.55-4.24-2.55l-48.59-0.02c-13.55,27.22-36.66,48.83-64.95,60.45c0,6.67-0.07,105.08-0.07,105.08
	c0,2.11,1.38,3.97,3.39,4.59c2.02,0.62,4.21-0.15,5.39-1.9l108.81-160.69C210.19,133.6,210.29,131.69,209.45,130.12z"/>
<linearGradient id="SVGID_00000041989056999268316500000004893923764443420292_" gradientUnits="userSpaceOnUse" x1="99.4551" y1="64.6078" x2="169.7592" y2="64.6078">
	<stop  offset="0" style="stop-color:#5BC2E7"/>
	<stop  offset="0.2377" style="stop-color:#4AB6DA"/>
	<stop  offset="0.7044" style="stop-color:#1F96BA"/>
	<stop  offset="1" style="stop-color:#007FA3"/>
</linearGradient>
<path style="fill:url(#SVGID_00000041989056999268316500000004893923764443420292_);" d="M99.46,64.62
	c0,26.97,21.88,48.84,48.86,48.84c5.27,0,10.33-0.86,15.08-2.4c4.1-12.42,6.36-25.69,6.36-39.49c0-20.05-4.71-38.98-13.05-55.8
	c-3.25,0-6.15,0-8.39,0C121.34,15.76,99.46,37.63,99.46,64.62z"/>
<linearGradient id="SVGID_00000043423650972813960760000006554882463037992622_" gradientUnits="userSpaceOnUse" x1="6.3346" y1="157.7356" x2="156.6192" y2="157.7356">
	<stop  offset="0" style="stop-color:#5BC2E7"/>
	<stop  offset="0.2377" style="stop-color:#4AB6DA"/>
	<stop  offset="0.7044" style="stop-color:#1F96BA"/>
	<stop  offset="1" style="stop-color:#007FA3"/>
</linearGradient>
<path style="fill:url(#SVGID_00000043423650972813960760000006554882463037992622_);" d="M156.62,127.55l-145.48-0.07
	c-2.15,0-4.04,1.42-4.62,3.49c-0.12,0.44-0.18,0.88-0.18,1.32c0,1.63,0.84,3.19,2.28,4.09c0,0,78.74,48.74,83.06,51.41
	c0,0.04,0,0.15,0,0.21C119.96,176.38,143.07,154.77,156.62,127.55z"/>
</svg>
