<svg width="267" height="47" viewBox="0 0 267 47" fill="none" xmlns="http://www.w3.org/2000/svg">
<g clip-path="url(#clip0_3249_1086)">
<path fill-rule="evenodd" clip-rule="evenodd" d="M147.107 0H233.842H244.939H267V23.497H267V24.7325C267 37.0305 257.123 47 244.939 47H147.107C134.924 47 125.047 37.0305 125.047 24.7325V22.2675C125.047 9.96952 134.924 0 147.107 0Z" fill="black"/>
<path d="M37.1122 27.9755L40.3191 28.3735C39.9068 30.1233 38.9144 31.6782 37.5064 32.7806C35.9797 33.8713 34.1381 34.4206 32.2694 34.3428C29.5861 34.3428 27.4678 33.5112 25.8967 31.8481C24.3256 30.185 23.543 27.8448 23.543 24.8454C23.543 21.733 24.3275 19.3196 25.8967 17.605C26.6835 16.7553 27.6415 16.0856 28.7063 15.6409C29.771 15.1963 30.9177 14.987 32.0693 15.0272C33.1904 14.9903 34.3063 15.1966 35.3416 15.632C36.377 16.0675 37.3078 16.7221 38.0713 17.5515C39.6169 19.2305 40.4015 21.5964 40.425 24.6493C40.425 24.8394 40.425 25.1126 40.425 25.4868H26.7735C26.8911 27.5182 27.456 29.0506 28.4799 30.1494C28.9693 30.6767 29.5636 31.0936 30.2237 31.3731C30.8838 31.6525 31.595 31.7881 32.3106 31.7709C33.3642 31.8069 34.3995 31.4871 35.2527 30.8621C36.1387 30.104 36.7851 29.1005 37.1122 27.9755ZM26.9206 22.909H37.1475C37.1131 21.6517 36.7028 20.4343 35.9706 19.4166C35.5122 18.8377 34.9259 18.375 34.2588 18.0656C33.5916 17.7562 32.8619 17.6086 32.1282 17.6347C31.4635 17.6185 30.8024 17.738 30.1846 17.986C29.5668 18.234 29.005 18.6054 28.5329 19.078C27.5383 20.1056 26.9628 21.4731 26.9206 22.909Z" fill="#1D1D1B"/>
<path d="M44.6084 33.927V8.41646H54.1409C55.4282 8.39009 56.7154 8.47155 57.9893 8.65998C59.1033 8.81743 60.1686 9.22322 61.108 9.8479C61.9816 10.4775 62.6789 11.3246 63.1322 12.3069C63.808 13.7683 64.0466 15.397 63.8188 16.9933C63.5909 18.5896 62.9065 20.0841 61.8494 21.2935C60.4783 22.7962 58.0128 23.5505 54.4352 23.5505H47.9624V33.9211L44.6084 33.927ZM47.9565 20.5451H54.4881C56.6496 20.5451 58.1835 20.1392 59.0896 19.3275C59.5525 18.8924 59.9148 18.3598 60.1507 17.7675C60.3867 17.1752 60.4905 16.5377 60.4548 15.9003C60.481 14.9225 60.1987 13.9616 59.6487 13.1562C59.1466 12.4177 58.3994 11.8847 57.5421 11.6535C56.5117 11.4647 55.464 11.389 54.4175 11.4278H47.9448L47.9565 20.5451Z" fill="#1D1D1B"/>
<path d="M78.5315 31.6461C77.5527 32.5382 76.4304 33.2552 75.2128 33.7666C74.1182 34.1719 72.9598 34.3731 71.794 34.3605C69.7816 34.3605 68.234 33.8656 67.1513 32.8756C66.6245 32.3984 66.2069 31.8113 65.9275 31.1548C65.648 30.4984 65.5135 29.7885 65.5331 29.0743C65.5266 28.2316 65.7255 27.4002 66.1124 26.6534C66.4992 25.9065 67.0621 25.2673 67.7515 24.7918C68.434 24.3281 69.1874 23.981 69.9817 23.7643C70.8908 23.5491 71.8126 23.3924 72.7414 23.2951C74.6163 23.1224 76.4693 22.7602 78.2726 22.214C78.2726 21.7864 78.2726 21.5132 78.2726 21.4003C78.2726 20.1253 77.9804 19.2245 77.3959 18.6978C76.6113 17.993 75.4344 17.6406 73.8653 17.6406C72.406 17.6406 71.3291 17.8979 70.6348 18.4127C69.8263 19.1235 69.2824 20.0916 69.0931 21.1568L66.0568 20.7351C66.2629 19.5866 66.728 18.5014 67.4161 17.5634C68.1382 16.6938 69.0886 16.0474 70.1582 15.6983C71.4954 15.2409 72.9008 15.0198 74.3125 15.045C75.6062 15.0018 76.8973 15.1908 78.1255 15.6033C78.9513 15.8748 79.6934 16.3578 80.2792 17.005C80.7666 17.6268 81.0977 18.3584 81.2442 19.1373C81.3744 20.0936 81.4255 21.0592 81.3972 22.024V26.1817C81.3511 28.0254 81.4179 29.8702 81.5972 31.7055C81.7311 32.4855 81.9957 33.2368 82.3799 33.9269H79.1435C78.8057 33.2098 78.5984 32.4373 78.5315 31.6461ZM78.2726 24.6493C76.6343 25.2391 74.9344 25.6376 73.2062 25.8372C72.2827 25.9359 71.374 26.1453 70.4995 26.4609C70.0001 26.6683 69.5737 27.0221 69.2755 27.4765C68.99 27.9199 68.8406 28.4386 68.846 28.9674C68.838 29.3633 68.9179 29.756 69.0798 30.1168C69.2417 30.4775 69.4815 30.7971 69.7816 31.0522C70.5668 31.6626 71.5468 31.9607 72.5354 31.8896C73.6485 31.9107 74.7477 31.6384 75.7247 31.0997C76.6155 30.6115 77.3318 29.8531 77.7725 28.9317C78.1575 27.936 78.328 26.869 78.2726 25.8016V24.6493Z" fill="#1D1D1B"/>
<path d="M86.2402 12.0158V8.41638H89.3412V12.0158H86.2402ZM86.2402 33.9269V15.4489H89.3412V33.9269H86.2402Z" fill="#1D1D1B"/>
<path d="M94.0312 33.927V15.4489H96.8204V18.2464C97.2878 17.2501 97.9621 16.3669 98.7975 15.6568C99.3791 15.2423 100.075 15.0222 100.786 15.0272C101.922 15.055 103.028 15.4049 103.976 16.0369L102.928 18.9176C102.244 18.4881 101.457 18.2541 100.651 18.2405C99.9928 18.2288 99.3492 18.4377 98.8211 18.8344C98.2586 19.2664 97.8465 19.8674 97.6442 20.551C97.2904 21.7353 97.1158 22.9669 97.1264 24.2038V33.8794L94.0312 33.927Z" fill="#1D1D1B"/>
<path d="M104.582 28.421L107.648 27.9339C107.751 29.0365 108.267 30.058 109.089 30.7909C110.04 31.5032 111.209 31.8545 112.39 31.7828C113.814 31.7828 114.874 31.4858 115.562 30.9037C115.879 30.6612 116.137 30.349 116.316 29.9908C116.496 29.6327 116.592 29.238 116.598 28.8367C116.604 28.5023 116.522 28.1722 116.362 27.8794C116.202 27.5865 115.969 27.3411 115.686 27.1677C114.674 26.6834 113.607 26.3283 112.508 26.1105C110.9 25.7414 109.325 25.2367 107.801 24.6018C106.991 24.2399 106.306 23.6451 105.829 22.8918C105.353 22.1386 105.108 21.2603 105.123 20.3669C105.116 19.5674 105.308 18.7788 105.682 18.0742C106.049 17.3804 106.571 16.7825 107.206 16.328C107.81 15.9127 108.478 15.6034 109.184 15.4133C110.053 15.1582 110.955 15.0322 111.861 15.0391C113.15 15.0125 114.432 15.226 115.644 15.6687C116.593 15.9845 117.429 16.5728 118.051 17.3615C118.623 18.2194 118.989 19.1993 119.122 20.2243L116.086 20.646C116.001 19.7756 115.578 18.9745 114.909 18.4187C114.093 17.8363 113.105 17.5533 112.108 17.6168C110.684 17.6168 109.668 17.8544 109.06 18.3296C108.786 18.5132 108.559 18.7606 108.399 19.0511C108.24 19.3416 108.151 19.6665 108.142 19.9986C108.14 20.3985 108.275 20.7866 108.525 21.0975C108.837 21.4751 109.243 21.7621 109.701 21.929C110.015 22.0478 110.929 22.3151 112.443 22.7308C114.004 23.1178 115.539 23.6038 117.039 24.186C117.861 24.5267 118.57 25.0976 119.081 25.8313C119.597 26.6251 119.856 27.5611 119.822 28.5101C119.826 29.5699 119.51 30.6057 118.916 31.4799C118.273 32.4386 117.365 33.1845 116.304 33.6241C115.083 34.1447 113.768 34.4016 112.443 34.3784C110.066 34.3784 108.254 33.8795 107.006 32.8816C105.668 31.7579 104.802 30.1639 104.582 28.421Z" fill="#1D1D1B"/>
<path d="M0 33.927V8.41642H11.1802C12.9192 8.34179 14.6578 8.57498 16.3172 9.10542C17.4997 9.56813 18.4914 10.4226 19.1298 11.5288C19.8297 12.6875 20.1945 14.0206 20.1831 15.3776C20.2186 17.0781 19.5837 18.7231 18.4179 19.9511C17.241 21.1905 15.4482 21.9824 13.0396 22.3269C13.7661 22.6533 14.4436 23.0812 15.052 23.598C16.1171 24.6046 17.0504 25.7443 17.8294 26.9895L22.225 33.9329H18.0177L14.6754 28.6229C13.6986 27.0964 12.9101 25.9204 12.2629 25.1126C11.7881 24.4562 11.2143 23.879 10.5623 23.402C10.0938 23.0948 9.57915 22.8661 9.03828 22.7249C8.42351 22.6267 7.80097 22.5869 7.17884 22.6061H3.2952V33.9329L0 33.927ZM3.34228 19.6719H10.5447C11.7572 19.7195 12.969 19.5588 14.1282 19.1968C14.9344 18.9217 15.6262 18.3822 16.0935 17.6644C16.5392 16.9869 16.7748 16.1908 16.7702 15.3776C16.7839 14.8159 16.6738 14.2581 16.4479 13.7445C16.222 13.2309 15.8859 12.7744 15.4639 12.4078C14.597 11.6159 13.224 11.2199 11.3449 11.2199H3.34228V19.6719Z" fill="#1D1D1B"/>
<path d="M138.334 33.7191L148.037 8.22632H151.638L161.983 33.7369H158.176L155.234 26.0154H144.642L141.865 33.7369L138.334 33.7191ZM145.625 23.2416H154.192L151.556 16.1794C150.748 14.0293 150.15 12.2652 149.761 10.8873C149.432 12.5434 148.977 14.1716 148.402 15.7577L145.625 23.2416Z" fill="white"/>
<path d="M164.277 11.7901V8.22632H167.378V11.7901H164.277ZM164.277 33.7012V15.235H167.378V33.7191L164.277 33.7012Z" fill="white"/>
<path d="M183.979 33.7191V31.3907C183.449 32.2707 182.694 32.9904 181.793 33.4743C180.892 33.9582 179.879 34.1884 178.86 34.1408C177.428 34.1499 176.026 33.7258 174.835 32.9231C173.588 32.0824 172.602 30.9024 171.993 29.5198C171.295 27.942 170.949 26.2285 170.98 24.5008C170.957 22.7832 171.269 21.0777 171.898 19.4819C172.432 18.0686 173.391 16.8596 174.641 16.025C175.855 15.2294 177.276 14.816 178.724 14.8371C179.706 14.8199 180.678 15.0419 181.557 15.4845C182.436 15.927 183.196 16.577 183.773 17.3792V8.22632H186.862V33.7369L183.979 33.7191ZM174.17 24.4949C174.17 26.8707 174.664 28.6407 175.653 29.8049C176.07 30.349 176.605 30.7896 177.217 31.0933C177.829 31.3969 178.501 31.5556 179.183 31.557C179.847 31.56 180.503 31.4108 181.101 31.1207C181.7 30.8305 182.225 30.407 182.637 29.8821C183.591 28.7595 184.061 27.0548 184.061 24.7562C184.061 22.2259 183.579 20.3728 182.614 19.1849C182.197 18.6289 181.658 18.1784 181.039 17.8691C180.42 17.5598 179.738 17.4002 179.048 17.403C178.379 17.3954 177.718 17.5455 177.118 17.8415C176.517 18.1375 175.993 18.571 175.588 19.1077C174.646 20.252 174.174 22.0478 174.17 24.4949Z" fill="white"/>
<path d="M203.685 31.4382C202.705 32.3201 201.583 33.0254 200.366 33.523C199.272 33.9312 198.113 34.1326 196.947 34.117C194.935 34.117 193.387 33.622 192.305 32.6321C191.777 32.154 191.36 31.5658 191.08 30.9084C190.801 30.2509 190.666 29.5399 190.687 28.8248C190.681 27.9831 190.88 27.1529 191.267 26.4072C191.654 25.6615 192.216 25.0232 192.905 24.5483C193.587 24.0846 194.341 23.7374 195.135 23.5208C196.044 23.3056 196.966 23.1489 197.895 23.0515C199.769 22.8759 201.622 22.5138 203.426 21.9705C203.426 21.5429 203.426 21.2697 203.426 21.1509C203.426 19.8798 203.132 18.977 202.549 18.4543C201.765 17.7495 200.588 17.397 199.019 17.397C197.559 17.397 196.483 17.6544 195.788 18.1692C194.979 18.8776 194.433 19.8435 194.241 20.9074L191.21 20.4916C191.416 19.3413 191.882 18.2542 192.57 17.3139C193.296 16.4545 194.246 15.8169 195.312 15.4726C196.649 15.0152 198.054 14.7941 199.466 14.8193C200.76 14.7761 202.051 14.9651 203.279 15.3776C204.106 15.6469 204.848 16.1302 205.433 16.7793C205.921 17.4004 206.252 18.1323 206.398 18.9116C206.525 19.8682 206.576 20.8335 206.551 21.7983V25.956C206.504 27.7997 206.571 29.6445 206.751 31.4798C206.884 32.2598 207.149 33.0111 207.533 33.7012H204.291C203.961 32.9878 203.756 32.2222 203.685 31.4382ZM203.426 24.4414C201.788 25.0335 200.088 25.4321 198.36 25.6293C197.436 25.7322 196.528 25.9435 195.653 26.2589C195.153 26.4663 194.727 26.8201 194.429 27.2746C194.08 27.8323 193.939 28.4974 194.031 29.1506C194.124 29.8038 194.444 30.4022 194.935 30.8384C195.718 31.4479 196.696 31.746 197.683 31.6758C198.796 31.6983 199.896 31.4259 200.872 30.8859C201.766 30.3996 202.485 29.6409 202.926 28.7179C203.311 27.7222 203.481 26.6552 203.426 25.5878V24.4414Z" fill="white"/>
<path d="M211.376 33.7191V15.235H214.142V17.8663C214.769 16.8801 215.644 16.0789 216.678 15.5438C217.711 15.0088 218.866 14.7588 220.026 14.8193C221.069 14.8074 222.104 15.0095 223.068 15.4132C223.89 15.7367 224.608 16.281 225.145 16.9872C225.621 17.6845 225.949 18.4729 226.11 19.3037C226.251 20.3128 226.308 21.332 226.281 22.3507V33.7131H223.18V22.4814C223.222 21.513 223.099 20.5445 222.815 19.6185C222.568 18.9828 222.116 18.4494 221.532 18.1039C220.876 17.7178 220.126 17.5225 219.367 17.5396C218.11 17.5156 216.889 17.9692 215.948 18.8107C214.989 19.6601 214.506 21.2637 214.506 23.6336V33.731L211.376 33.7191Z" fill="white"/>
<path d="M237.784 30.9156L238.231 33.6834C237.458 33.8574 236.669 33.951 235.878 33.9626C234.971 34.0094 234.068 33.8235 233.253 33.4221C232.675 33.106 232.217 32.6073 231.947 32.0025C231.694 31.4085 231.564 30.185 231.564 28.3081V17.6762H229.293V15.235H231.564V10.6615L234.654 8.77869V15.235H237.772V17.6762H234.654V28.4803C234.616 29.0597 234.672 29.6414 234.818 30.2028C234.926 30.4536 235.112 30.6621 235.348 30.7968C235.675 30.9705 236.044 31.0506 236.413 31.0284C236.872 31.0229 237.33 30.9852 237.784 30.9156Z" fill="white"/>
<path d="M239.579 28.2011L242.645 27.7141C242.745 28.8161 243.261 29.837 244.086 30.5651C245.036 31.2798 246.206 31.6313 247.388 31.557C248.812 31.557 249.869 31.264 250.559 30.6779C250.876 30.4369 251.134 30.1259 251.314 29.7686C251.493 29.4114 251.589 29.0174 251.595 28.6169C251.602 28.2816 251.521 27.9504 251.359 27.6572C251.198 27.3639 250.963 27.1192 250.677 26.9479C249.667 26.4631 248.602 26.106 247.505 25.8847C245.897 25.5197 244.322 25.0169 242.798 24.382C241.988 24.02 241.303 23.4252 240.827 22.672C240.35 21.9187 240.105 21.0405 240.12 20.147C240.113 19.3475 240.305 18.5589 240.679 17.8543C241.046 17.1605 241.568 16.5626 242.204 16.1081C242.804 15.6914 243.471 15.382 244.175 15.1934C245.047 14.9388 245.95 14.8127 246.858 14.8192C248.147 14.7927 249.429 15.0061 250.642 15.4488C251.59 15.7647 252.426 16.353 253.048 17.1416C253.62 17.9988 253.985 18.9793 254.113 20.0045L251.083 20.4203C250.993 19.5515 250.571 18.7525 249.906 18.1929C249.089 17.6152 248.101 17.3346 247.105 17.397C245.681 17.397 244.665 17.6346 244.057 18.1098C243.783 18.2933 243.556 18.5408 243.396 18.8313C243.237 19.1217 243.148 19.4467 243.139 19.7788C243.138 20.1784 243.273 20.5663 243.522 20.8776C243.834 21.2552 244.24 21.5422 244.698 21.7092C245.008 21.8279 245.922 22.0952 247.441 22.511C249 22.8967 250.533 23.3828 252.03 23.9662C252.855 24.3028 253.566 24.872 254.078 25.6055C254.593 26.4019 254.852 27.3396 254.819 28.2902C254.819 29.3495 254.504 30.3842 253.913 31.26C253.268 32.2164 252.36 32.9616 251.301 33.4042C250.08 33.9249 248.765 34.1818 247.441 34.1585C245.059 34.1585 243.245 33.6596 241.998 32.6618C240.661 31.5374 239.797 29.9434 239.579 28.2011Z" fill="white"/>
</g>
<defs>
<clipPath id="clip0_3249_1086">
<rect width="267" height="47" fill="white"/>
</clipPath>
</defs>
</svg>
