<?xml version="1.0" encoding="utf-8"?>
<!-- Generator: Adobe Illustrator 16.0.0, SVG Export Plug-In . SVG Version: 6.00 Build 0)  -->
<!DOCTYPE svg PUBLIC "-//W3C//DTD SVG 1.1//EN" "http://www.w3.org/Graphics/SVG/1.1/DTD/svg11.dtd">
<svg version="1.1" id="Layer_1" xmlns="http://www.w3.org/2000/svg" xmlns:xlink="http://www.w3.org/1999/xlink" x="0px" y="0px"
	 width="300px" height="111.334px" viewBox="0 0 300 111.334" enable-background="new 0 0 300 111.334" xml:space="preserve">
<path fill="#003973" d="M32.15,42.167L63.825,9.366c-3.535-0.845-7.224-1.297-11.017-1.302c-14.593-0.018-27.652,6.556-36.37,16.907
	L32.15,42.167z"/>
<path fill="#003973" d="M24.903,49.671L10.513,33.864c-3.327,6.477-5.208,13.819-5.218,21.601C5.29,59.876,5.889,64.146,7.01,68.199
	L24.903,49.671z"/>
<path fill="#003973" d="M66.09,9.76L33.437,43.573l1.286,1.408l33.4-34.587C67.449,10.167,66.771,9.956,66.09,9.76"/>
<path fill="#003973" d="M70.083,11.103L36.008,46.389l1.286,1.407l34.68-35.912C71.348,11.61,70.718,11.349,70.083,11.103"/>
<path fill="#003973" d="M55.163,67.348c0.343,0.378,0.829,0.593,1.339,0.593v-6.223c0-13.651,5.927-20.521,20.736-20.521h4.691
	c9.088,0,14.702,2.979,17.76,7.296c-2.328-15.675-12.32-28.853-26.05-35.594L38.58,49.203L55.163,67.348z"/>
<path fill="#003973" d="M69.743,68.798c0-0.478,0.388-0.866,0.866-0.866h10.583c9.947-0.025,11.814-4.652,11.814-9.294
	c0-4.41-1.876-8.996-11.896-8.996h-3.052c-11.651,0-11.855,4.53-11.896,12.706v24.285c0,1.667-1.364,3.031-3.031,3.031h-3.598
	c-1.667,0-3.031-1.364-3.031-3.031l0-10.245h-2.499c-3.045,0-5.949-1.286-7.994-3.542L31.321,56.721L10.885,77.882
	c7.985,14.917,23.707,25.074,41.811,25.095C71.416,103,87.615,92.124,95.357,76.388l-0.01-0.004c0.664-1.358,1.25-2.745,1.776-4.147
	c-3.509,2.7-8.684,3.979-15.515,4.135c-0.02,0.001-11,0.017-11,0.017c-0.478,0-0.866-0.388-0.866-0.866V68.798z"/>
<path fill="#003973" d="M161.336,73.357c0,1.667-1.363,3.03-3.031,3.03h-3.597c-1.667,0-3.032-1.363-3.032-3.03v-29.13
	c0-1.667,1.365-3.031,3.032-3.031h3.597c1.668,0,3.031,1.364,3.031,3.031V73.357z"/>
<path fill="#003973" d="M162.396,32.468c0,2.63-2.637,4.763-5.889,4.763c-3.253,0-5.89-2.132-5.89-4.763
	c0-2.631,2.637-4.763,5.89-4.763C159.759,27.705,162.396,29.837,162.396,32.468"/>
<path fill="#003973" d="M219.421,52.724c0-6.366,5.16-11.527,11.527-11.527h16.759c1.46,0,2.654,1.194,2.654,2.653V47
	c0,1.459-1.194,2.653-2.654,2.653c0,0-11.412-0.003-14.296-0.003c-2.392,0-4.33,1.942-4.33,4.334v19.375
	c0,1.666-1.364,3.031-3.031,3.031h-3.599c-1.667,0-3.03-1.365-3.03-3.031V52.724z"/>
<path fill="#003973" d="M192.583,40.547c-4.481,0-7.776,0.937-10.036,1.956c-0.222,0.104-0.374,0.328-0.374,0.588v7.203
	c0,0.239,0.194,0.433,0.434,0.433c0.056,0,0.108-0.01,0.156-0.029c2.278-0.918,5.971-1.733,10.023-1.733
	c10.02,0,12.649,6.195,12.649,10.849c0,4.41-1.877,8.996-11.896,8.996h-3.053c-11.65,0-11.855-4.53-11.896-12.705V30.736
	c0-1.667-1.363-3.031-3.03-3.031h-3.599c-1.667,0-3.031,1.364-3.031,3.031v25.997c0,13.651,5.928,20.521,20.736,20.521h4.691
	c15.267,0,20.736-8.403,20.736-17.441C215.096,47.027,207.571,40.547,192.583,40.547"/>
<path fill="#003973" d="M287.033,66.837c-2.369,1.035-6.688,2.639-13.866,2.639c-8.999,0-13.349-4.843-13.349-10.574
	s4.711-10.574,12.478-10.574c5.384,0,9.087,2.55,11.147,5.542c0.088,0.133,0.139,0.292,0.139,0.461c0,0.469-0.39,0.85-0.871,0.85
	h-16.48c-1.467,0-2.668,1.245-2.668,2.768v1.585c0,1.521,1.201,2.767,2.668,2.767h24.88c1.925,0,3.484-1.523,3.484-3.399
	c0-10.136-9.983-18.353-22.299-18.353s-22.299,8.217-22.299,18.354c0,8.752,7.764,18.354,23.17,18.354
	c8.503,0,11.821-1.648,14.084-2.726c0.222-0.102,0.375-0.323,0.375-0.578v-6.719c0-0.235-0.194-0.425-0.436-0.425
	C287.135,66.808,287.082,66.817,287.033,66.837"/>
<path fill="#003973" d="M142.828,37.027c1.459,0,2.653-1.194,2.653-2.653v-3.15c0-1.459-1.194-2.653-2.653-2.653h-32.86
	c-1.667,0-3.031,1.364-3.031,3.031v41.756c0,1.666,1.364,3.031,3.031,3.031h3.598c1.667,0,3.031-1.365,3.031-3.031V38.326
	c0-0.717,0.582-1.299,1.299-1.299H142.828z"/>
<path fill="#003973" d="M121.083,49.652h20.359c1.459,0,2.653,1.194,2.653,2.654v3.149c0,1.459-1.193,2.653-2.653,2.653h-20.359
	c-0.478,0-0.866-0.388-0.866-0.866v-6.724C120.218,50.041,120.605,49.652,121.083,49.652"/>
</svg>
